<?xml version="1.0" encoding="UTF-8" standalone="no"?>
<!DOCTYPE svg PUBLIC "-//W3C//DTD SVG 1.1//EN"
 "http://www.w3.org/Graphics/SVG/1.1/DTD/svg11.dtd">
<!-- Generated by graphviz version 2.36.0 (20140111.2315)
 -->
<!-- Title: %3 Pages: 1 -->
<svg width="242pt" height="233pt"
 viewBox="0.00 0.00 242.00 233.00" xmlns="http://www.w3.org/2000/svg" xmlns:xlink="http://www.w3.org/1999/xlink">
<g id="graph0" class="graph" transform="scale(1 1) rotate(0) translate(4 229)">
<title>%3</title>
<polygon fill="white" stroke="none" points="-4,4 -4,-229 238,-229 238,4 -4,4"/>
<!-- 1.E -->
<g id="node1" class="node"><title>1.E</title>
<polygon fill="#ccffcc" stroke="black" points="234,-225 180,-225 180,-189 234,-189 234,-225"/>
<text text-anchor="middle" x="207" y="-202.8" font-family="Times,serif" font-size="14.00">1.E</text>
</g>
<!-- 1.A -->
<g id="node2" class="node"><title>1.A</title>
<polygon fill="#ccffcc" stroke="black" points="144,-144 90,-144 90,-108 144,-108 144,-144"/>
<text text-anchor="middle" x="117" y="-121.8" font-family="Times,serif" font-size="14.00">1.A</text>
</g>
<!-- 1.E&#45;&gt;1.A -->
<g id="edge4" class="edge"><title>1.E&#45;&gt;1.A</title>
<path fill="none" stroke="#000000" d="M186.031,-188.62C173.908,-177.461 158.273,-163.069 145.049,-150.897"/>
<polygon fill="#000000" stroke="#000000" points="147.314,-148.226 137.586,-144.028 142.574,-153.376 147.314,-148.226"/>
</g>
<!-- 2.A -->
<g id="node4" class="node"><title>2.A</title>
<polygon fill="#ffffcc" stroke="black" points="54,-64.5442 54,-79.4558 38.1838,-90 15.8162,-90 1.06581e-14,-79.4558 7.10543e-15,-64.5442 15.8162,-54 38.1838,-54 54,-64.5442"/>
<text text-anchor="middle" x="27" y="-67.8" font-family="Times,serif" font-size="14.00">2.A</text>
</g>
<!-- 1.A&#45;&gt;2.A -->
<g id="edge7" class="edge"><title>1.A&#45;&gt;2.A</title>
<path fill="none" stroke="#ff0000" d="M89.5971,-109.798C78.9971,-103.294 66.7658,-95.7881 56.0099,-89.1879"/>
<polygon fill="#ff0000" stroke="#ff0000" points="57.7441,-86.1456 47.3903,-83.8986 54.0829,-92.1119 57.7441,-86.1456"/>
</g>
<!-- 1.C -->
<g id="node3" class="node"><title>1.C</title>
<polygon fill="#ccffcc" stroke="black" points="234,-171 180,-171 180,-135 234,-135 234,-171"/>
<text text-anchor="middle" x="207" y="-148.8" font-family="Times,serif" font-size="14.00">1.C</text>
</g>
<!-- 1.C&#45;&gt;1.A -->
<g id="edge3" class="edge"><title>1.C&#45;&gt;1.A</title>
<path fill="none" stroke="#000000" d="M179.597,-144.899C171.519,-142.421 162.493,-139.651 153.895,-137.013"/>
<polygon fill="#000000" stroke="#000000" points="154.668,-133.589 144.081,-134.002 152.614,-140.281 154.668,-133.589"/>
</g>
<!-- 2.G -->
<g id="node5" class="node"><title>2.G</title>
<polygon fill="#ffffcc" stroke="black" points="144,-64.5442 144,-79.4558 128.184,-90 105.816,-90 90,-79.4558 90,-64.5442 105.816,-54 128.184,-54 144,-64.5442"/>
<text text-anchor="middle" x="117" y="-67.8" font-family="Times,serif" font-size="14.00">2.G</text>
</g>
<!-- 2.G&#45;&gt;2.A -->
<g id="edge1" class="edge"><title>2.G&#45;&gt;2.A</title>
<path fill="none" stroke="#000000" d="M89.5971,-72C81.6068,-72 72.6894,-72 64.1759,-72"/>
<polygon fill="#000000" stroke="#000000" points="64.081,-68.5001 54.081,-72 64.081,-75.5001 64.081,-68.5001"/>
</g>
<!-- 2.F -->
<g id="node6" class="node"><title>2.F</title>
<polygon fill="#ffffcc" stroke="black" points="144,-10.5442 144,-25.4558 128.184,-36 105.816,-36 90,-25.4558 90,-10.5442 105.816,-7.10543e-15 128.184,-0 144,-10.5442"/>
<text text-anchor="middle" x="117" y="-13.8" font-family="Times,serif" font-size="14.00">2.F</text>
</g>
<!-- 2.F&#45;&gt;2.A -->
<g id="edge6" class="edge"><title>2.F&#45;&gt;2.A</title>
<path fill="none" stroke="#000000" d="M96.4699,-29.9844C84.6212,-37.2552 69.3011,-46.6562 56.1576,-54.7215"/>
<polygon fill="#000000" stroke="#000000" points="54.1681,-51.8358 47.4755,-60.0492 57.8293,-57.8021 54.1681,-51.8358"/>
</g>
<!-- 1.B\n2.B -->
<g id="node7" class="node"><title>1.B\n2.B</title>
<path fill="#eeeeee" stroke="black" d="M222,-117C222,-117 192,-117 192,-117 186,-117 180,-111 180,-105 180,-105 180,-93 180,-93 180,-87 186,-81 192,-81 192,-81 222,-81 222,-81 228,-81 234,-87 234,-93 234,-93 234,-105 234,-105 234,-111 228,-117 222,-117"/>
<text text-anchor="middle" x="207" y="-101.8" font-family="Times,serif" font-size="14.00">1.B</text>
<text text-anchor="middle" x="207" y="-87.8" font-family="Times,serif" font-size="14.00">2.B</text>
</g>
<!-- 1.B\n2.B&#45;&gt;1.A -->
<g id="edge2" class="edge"><title>1.B\n2.B&#45;&gt;1.A</title>
<path fill="none" stroke="#000000" d="M179.597,-107.101C171.519,-109.579 162.493,-112.349 153.895,-114.987"/>
<polygon fill="#000000" stroke="#000000" points="152.614,-111.719 144.081,-117.998 154.668,-118.411 152.614,-111.719"/>
</g>
<!-- 1.D\n2.D -->
<g id="node8" class="node"><title>1.D\n2.D</title>
<path fill="#eeeeee" stroke="black" d="M222,-63C222,-63 192,-63 192,-63 186,-63 180,-57 180,-51 180,-51 180,-39 180,-39 180,-33 186,-27 192,-27 192,-27 222,-27 222,-27 228,-27 234,-33 234,-39 234,-39 234,-51 234,-51 234,-57 228,-63 222,-63"/>
<text text-anchor="middle" x="207" y="-47.8" font-family="Times,serif" font-size="14.00">1.D</text>
<text text-anchor="middle" x="207" y="-33.8" font-family="Times,serif" font-size="14.00">2.D</text>
</g>
<!-- 1.D\n2.D&#45;&gt;1.A -->
<g id="edge5" class="edge"><title>1.D\n2.D&#45;&gt;1.A</title>
<path fill="none" stroke="#000000" d="M186.031,-63.3802C173.908,-74.5395 158.273,-88.9309 145.049,-101.103"/>
<polygon fill="#000000" stroke="#000000" points="142.574,-98.624 137.586,-107.972 147.314,-103.774 142.574,-98.624"/>
</g>
</g>
</svg>
