<?xml version="1.0" encoding="UTF-8" standalone="no"?>
<!DOCTYPE svg PUBLIC "-//W3C//DTD SVG 1.1//EN"
 "http://www.w3.org/Graphics/SVG/1.1/DTD/svg11.dtd">
<!-- Generated by graphviz version 2.36.0 (20140111.2315)
 -->
<!-- Title: %3 Pages: 1 -->
<svg width="152pt" height="314pt"
 viewBox="0.00 0.00 152.00 314.00" xmlns="http://www.w3.org/2000/svg" xmlns:xlink="http://www.w3.org/1999/xlink">
<g id="graph0" class="graph" transform="scale(1 1) rotate(0) translate(4 310)">
<title>%3</title>
<polygon fill="white" stroke="none" points="-4,4 -4,-310 148,-310 148,4 -4,4"/>
<!-- 1.E -->
<g id="node1" class="node"><title>1.E</title>
<polygon fill="#ccffcc" stroke="black" points="144,-306 90,-306 90,-270 144,-270 144,-306"/>
<text text-anchor="middle" x="117" y="-283.8" font-family="Times,serif" font-size="14.00">1.E</text>
</g>
<!-- 1.A\n2.A -->
<g id="node6" class="node"><title>1.A\n2.A</title>
<path fill="#eeeeee" stroke="black" d="M42,-171C42,-171 12,-171 12,-171 6,-171 0,-165 0,-159 0,-159 0,-147 0,-147 0,-141 6,-135 12,-135 12,-135 42,-135 42,-135 48,-135 54,-141 54,-147 54,-147 54,-159 54,-159 54,-165 48,-171 42,-171"/>
<text text-anchor="middle" x="27" y="-155.8" font-family="Times,serif" font-size="14.00">1.A</text>
<text text-anchor="middle" x="27" y="-141.8" font-family="Times,serif" font-size="14.00">2.A</text>
</g>
<!-- 1.E&#45;&gt;1.A\n2.A -->
<g id="edge3" class="edge"><title>1.E&#45;&gt;1.A\n2.A</title>
<path fill="none" stroke="#000000" d="M97.465,-269.947C94.8392,-267.056 92.2656,-264.019 90,-261 70.582,-235.127 52.6829,-202.605 41.1605,-180.044"/>
<polygon fill="#000000" stroke="#000000" points="44.2481,-178.393 36.6269,-171.033 37.9949,-181.539 44.2481,-178.393"/>
</g>
<!-- 1.C -->
<g id="node2" class="node"><title>1.C</title>
<polygon fill="#ccffcc" stroke="black" points="144,-252 90,-252 90,-216 144,-216 144,-252"/>
<text text-anchor="middle" x="117" y="-229.8" font-family="Times,serif" font-size="14.00">1.C</text>
</g>
<!-- 1.C&#45;&gt;1.A\n2.A -->
<g id="edge5" class="edge"><title>1.C&#45;&gt;1.A\n2.A</title>
<path fill="none" stroke="#000000" d="M96.0314,-215.62C83.9077,-204.461 68.2726,-190.069 55.0489,-177.897"/>
<polygon fill="#000000" stroke="#000000" points="57.3144,-175.226 47.5864,-171.028 52.5737,-180.376 57.3144,-175.226"/>
</g>
<!-- 2.G -->
<g id="node3" class="node"><title>2.G</title>
<polygon fill="#ffffcc" stroke="black" points="144,-172.544 144,-187.456 128.184,-198 105.816,-198 90,-187.456 90,-172.544 105.816,-162 128.184,-162 144,-172.544"/>
<text text-anchor="middle" x="117" y="-175.8" font-family="Times,serif" font-size="14.00">2.G</text>
</g>
<!-- 2.G&#45;&gt;1.A\n2.A -->
<g id="edge4" class="edge"><title>2.G&#45;&gt;1.A\n2.A</title>
<path fill="none" stroke="#000000" d="M90.0731,-172.045C81.8218,-169.514 72.5442,-166.667 63.7266,-163.962"/>
<polygon fill="#000000" stroke="#000000" points="64.6325,-160.579 54.0457,-160.991 62.5792,-167.271 64.6325,-160.579"/>
</g>
<!-- 2.F -->
<g id="node4" class="node"><title>2.F</title>
<polygon fill="#ffffcc" stroke="black" points="144,-118.544 144,-133.456 128.184,-144 105.816,-144 90,-133.456 90,-118.544 105.816,-108 128.184,-108 144,-118.544"/>
<text text-anchor="middle" x="117" y="-121.8" font-family="Times,serif" font-size="14.00">2.F</text>
</g>
<!-- 2.F&#45;&gt;1.A\n2.A -->
<g id="edge2" class="edge"><title>2.F&#45;&gt;1.A\n2.A</title>
<path fill="none" stroke="#000000" d="M90.0731,-133.955C81.8218,-136.486 72.5442,-139.333 63.7266,-142.038"/>
<polygon fill="#000000" stroke="#000000" points="62.5792,-138.729 54.0457,-145.009 64.6325,-145.421 62.5792,-138.729"/>
</g>
<!-- 1.B\n2.B -->
<g id="node5" class="node"><title>1.B\n2.B</title>
<path fill="#eeeeee" stroke="black" d="M132,-90C132,-90 102,-90 102,-90 96,-90 90,-84 90,-78 90,-78 90,-66 90,-66 90,-60 96,-54 102,-54 102,-54 132,-54 132,-54 138,-54 144,-60 144,-66 144,-66 144,-78 144,-78 144,-84 138,-90 132,-90"/>
<text text-anchor="middle" x="117" y="-74.8" font-family="Times,serif" font-size="14.00">1.B</text>
<text text-anchor="middle" x="117" y="-60.8" font-family="Times,serif" font-size="14.00">2.B</text>
</g>
<!-- 1.B\n2.B&#45;&gt;1.A\n2.A -->
<g id="edge1" class="edge"><title>1.B\n2.B&#45;&gt;1.A\n2.A</title>
<path fill="none" stroke="#000000" d="M96.0314,-90.3802C83.9077,-101.539 68.2726,-115.931 55.0489,-128.103"/>
<polygon fill="#000000" stroke="#000000" points="52.5737,-125.624 47.5864,-134.972 57.3144,-130.774 52.5737,-125.624"/>
</g>
<!-- 1.D\n2.D -->
<g id="node7" class="node"><title>1.D\n2.D</title>
<path fill="#eeeeee" stroke="black" d="M132,-36C132,-36 102,-36 102,-36 96,-36 90,-30 90,-24 90,-24 90,-12 90,-12 90,-6 96,-0 102,-0 102,-0 132,-0 132,-0 138,-0 144,-6 144,-12 144,-12 144,-24 144,-24 144,-30 138,-36 132,-36"/>
<text text-anchor="middle" x="117" y="-20.8" font-family="Times,serif" font-size="14.00">1.D</text>
<text text-anchor="middle" x="117" y="-6.8" font-family="Times,serif" font-size="14.00">2.D</text>
</g>
<!-- 1.D\n2.D&#45;&gt;1.A\n2.A -->
<g id="edge6" class="edge"><title>1.D\n2.D&#45;&gt;1.A\n2.A</title>
<path fill="none" stroke="#000000" d="M97.465,-36.0528C94.8392,-38.9445 92.2656,-41.9813 90,-45 70.582,-70.8726 52.6829,-103.395 41.1605,-125.956"/>
<polygon fill="#000000" stroke="#000000" points="37.9949,-124.461 36.6269,-134.967 44.2481,-127.607 37.9949,-124.461"/>
</g>
</g>
</svg>
