<?xml version="1.0" encoding="UTF-8" standalone="no"?>
<!DOCTYPE svg PUBLIC "-//W3C//DTD SVG 1.1//EN"
 "http://www.w3.org/Graphics/SVG/1.1/DTD/svg11.dtd">
<!-- Generated by graphviz version 2.36.0 (20140111.2315)
 -->
<!-- Title: %3 Pages: 1 -->
<svg width="242pt" height="206pt"
 viewBox="0.00 0.00 242.00 206.00" xmlns="http://www.w3.org/2000/svg" xmlns:xlink="http://www.w3.org/1999/xlink">
<g id="graph0" class="graph" transform="scale(1 1) rotate(0) translate(4 202)">
<title>%3</title>
<polygon fill="white" stroke="none" points="-4,4 -4,-202 238,-202 238,4 -4,4"/>
<!-- 1.C -->
<g id="node1" class="node"><title>1.C</title>
<polygon fill="#ccffcc" stroke="black" points="234,-198 180,-198 180,-162 234,-162 234,-198"/>
<text text-anchor="middle" x="207" y="-175.8" font-family="Times,serif" font-size="14.00">1.C</text>
</g>
<!-- 1.A -->
<g id="node2" class="node"><title>1.A</title>
<polygon fill="#ccffcc" stroke="black" points="144,-144 90,-144 90,-108 144,-108 144,-144"/>
<text text-anchor="middle" x="117" y="-121.8" font-family="Times,serif" font-size="14.00">1.A</text>
</g>
<!-- 1.C&#45;&gt;1.A -->
<g id="edge3" class="edge"><title>1.C&#45;&gt;1.A</title>
<path fill="none" stroke="#000000" d="M179.597,-163.798C171.168,-158.626 161.707,-152.82 152.776,-147.34"/>
<polygon fill="#000000" stroke="#000000" points="154.435,-144.251 144.081,-142.004 150.774,-150.218 154.435,-144.251"/>
</g>
<!-- 2.F -->
<g id="node4" class="node"><title>2.F</title>
<polygon fill="#ffffcc" stroke="black" points="144,-172.544 144,-187.456 128.184,-198 105.816,-198 90,-187.456 90,-172.544 105.816,-162 128.184,-162 144,-172.544"/>
<text text-anchor="middle" x="117" y="-175.8" font-family="Times,serif" font-size="14.00">2.F</text>
</g>
<!-- 1.C&#45;&gt;2.F -->
<g id="edge7" class="edge"><title>1.C&#45;&gt;2.F</title>
<path fill="none" stroke="#ff0000" d="M179.597,-180C171.607,-180 162.689,-180 154.176,-180"/>
<polygon fill="#ff0000" stroke="#ff0000" points="154.081,-176.5 144.081,-180 154.081,-183.5 154.081,-176.5"/>
</g>
<!-- 2.A -->
<g id="node3" class="node"><title>2.A</title>
<polygon fill="#ffffcc" stroke="black" points="54,-145.544 54,-160.456 38.1838,-171 15.8162,-171 1.06581e-14,-160.456 7.10543e-15,-145.544 15.8162,-135 38.1838,-135 54,-145.544"/>
<text text-anchor="middle" x="27" y="-148.8" font-family="Times,serif" font-size="14.00">2.A</text>
</g>
<!-- 1.A&#45;&gt;2.A -->
<g id="edge6" class="edge"><title>1.A&#45;&gt;2.A</title>
<path fill="none" stroke="#ff0000" d="M89.5971,-134.101C81.284,-136.651 71.9676,-139.51 63.1464,-142.216"/>
<polygon fill="#ff0000" stroke="#ff0000" points="62.0107,-138.904 53.4772,-145.183 64.064,-145.596 62.0107,-138.904"/>
</g>
<!-- 2.F&#45;&gt;2.A -->
<g id="edge5" class="edge"><title>2.F&#45;&gt;2.A</title>
<path fill="none" stroke="#000000" d="M90.0731,-172.045C81.7481,-169.491 72.3785,-166.616 63.4905,-163.889"/>
<polygon fill="#000000" stroke="#000000" points="64.3284,-160.485 53.7416,-160.898 62.2751,-167.177 64.3284,-160.485"/>
</g>
<!-- 1.B\n2.B -->
<g id="node5" class="node"><title>1.B\n2.B</title>
<path fill="#eeeeee" stroke="black" d="M222,-144C222,-144 192,-144 192,-144 186,-144 180,-138 180,-132 180,-132 180,-120 180,-120 180,-114 186,-108 192,-108 192,-108 222,-108 222,-108 228,-108 234,-114 234,-120 234,-120 234,-132 234,-132 234,-138 228,-144 222,-144"/>
<text text-anchor="middle" x="207" y="-128.8" font-family="Times,serif" font-size="14.00">1.B</text>
<text text-anchor="middle" x="207" y="-114.8" font-family="Times,serif" font-size="14.00">2.B</text>
</g>
<!-- 1.B\n2.B&#45;&gt;1.A -->
<g id="edge2" class="edge"><title>1.B\n2.B&#45;&gt;1.A</title>
<path fill="none" stroke="#000000" d="M179.597,-126C171.607,-126 162.689,-126 154.176,-126"/>
<polygon fill="#000000" stroke="#000000" points="154.081,-122.5 144.081,-126 154.081,-129.5 154.081,-122.5"/>
</g>
<!-- 1.E\n2.G -->
<g id="node6" class="node"><title>1.E\n2.G</title>
<path fill="#eeeeee" stroke="black" d="M222,-90C222,-90 192,-90 192,-90 186,-90 180,-84 180,-78 180,-78 180,-66 180,-66 180,-60 186,-54 192,-54 192,-54 222,-54 222,-54 228,-54 234,-60 234,-66 234,-66 234,-78 234,-78 234,-84 228,-90 222,-90"/>
<text text-anchor="middle" x="207" y="-74.8" font-family="Times,serif" font-size="14.00">1.E</text>
<text text-anchor="middle" x="207" y="-60.8" font-family="Times,serif" font-size="14.00">2.G</text>
</g>
<!-- 1.E\n2.G&#45;&gt;1.A -->
<g id="edge1" class="edge"><title>1.E\n2.G&#45;&gt;1.A</title>
<path fill="none" stroke="#000000" d="M179.597,-88.2018C171.168,-93.3743 161.707,-99.18 152.776,-104.66"/>
<polygon fill="#000000" stroke="#000000" points="150.774,-101.782 144.081,-109.996 154.435,-107.749 150.774,-101.782"/>
</g>
<!-- 1.D\n2.D -->
<g id="node7" class="node"><title>1.D\n2.D</title>
<path fill="#eeeeee" stroke="black" d="M222,-36C222,-36 192,-36 192,-36 186,-36 180,-30 180,-24 180,-24 180,-12 180,-12 180,-6 186,-0 192,-0 192,-0 222,-0 222,-0 228,-0 234,-6 234,-12 234,-12 234,-24 234,-24 234,-30 228,-36 222,-36"/>
<text text-anchor="middle" x="207" y="-20.8" font-family="Times,serif" font-size="14.00">1.D</text>
<text text-anchor="middle" x="207" y="-6.8" font-family="Times,serif" font-size="14.00">2.D</text>
</g>
<!-- 1.D\n2.D&#45;&gt;1.A -->
<g id="edge4" class="edge"><title>1.D\n2.D&#45;&gt;1.A</title>
<path fill="none" stroke="#000000" d="M188.09,-36.0383C185.325,-38.9824 182.545,-42.0388 180,-45 164.905,-62.5651 149.052,-83.323 137.155,-99.4274"/>
<polygon fill="#000000" stroke="#000000" points="134.073,-97.7115 130.983,-107.846 139.718,-101.851 134.073,-97.7115"/>
</g>
</g>
</svg>
