<?xml version="1.0" encoding="UTF-8" standalone="no"?>
<!DOCTYPE svg PUBLIC "-//W3C//DTD SVG 1.1//EN"
 "http://www.w3.org/Graphics/SVG/1.1/DTD/svg11.dtd">
<!-- Generated by graphviz version 2.36.0 (20140111.2315)
 -->
<!-- Title: %3 Pages: 1 -->
<svg width="242pt" height="260pt"
 viewBox="0.00 0.00 242.00 260.00" xmlns="http://www.w3.org/2000/svg" xmlns:xlink="http://www.w3.org/1999/xlink">
<g id="graph0" class="graph" transform="scale(1 1) rotate(0) translate(4 256)">
<title>%3</title>
<polygon fill="white" stroke="none" points="-4,4 -4,-256 238,-256 238,4 -4,4"/>
<!-- 1.E -->
<g id="node1" class="node"><title>1.E</title>
<polygon fill="#ccffcc" stroke="black" points="234,-252 180,-252 180,-216 234,-216 234,-252"/>
<text text-anchor="middle" x="207" y="-229.8" font-family="Times,serif" font-size="14.00">1.E</text>
</g>
<!-- 1.A -->
<g id="node2" class="node"><title>1.A</title>
<polygon fill="#ccffcc" stroke="black" points="144,-144 90,-144 90,-108 144,-108 144,-144"/>
<text text-anchor="middle" x="117" y="-121.8" font-family="Times,serif" font-size="14.00">1.A</text>
</g>
<!-- 1.E&#45;&gt;1.A -->
<g id="edge4" class="edge"><title>1.E&#45;&gt;1.A</title>
<path fill="none" stroke="#000000" d="M188.09,-215.962C185.325,-213.018 182.545,-209.961 180,-207 164.905,-189.435 149.052,-168.677 137.155,-152.573"/>
<polygon fill="#000000" stroke="#000000" points="139.718,-150.149 130.983,-144.154 134.073,-154.288 139.718,-150.149"/>
</g>
<!-- 2.A -->
<g id="node4" class="node"><title>2.A</title>
<polygon fill="#ffffcc" stroke="black" points="54,-91.5442 54,-106.456 38.1838,-117 15.8162,-117 1.06581e-14,-106.456 7.10543e-15,-91.5442 15.8162,-81 38.1838,-81 54,-91.5442"/>
<text text-anchor="middle" x="27" y="-94.8" font-family="Times,serif" font-size="14.00">2.A</text>
</g>
<!-- 1.A&#45;&gt;2.A -->
<g id="edge6" class="edge"><title>1.A&#45;&gt;2.A</title>
<path fill="none" stroke="#ff0000" d="M89.5971,-117.899C81.284,-115.349 71.9676,-112.49 63.1464,-109.784"/>
<polygon fill="#ff0000" stroke="#ff0000" points="64.064,-106.404 53.4772,-106.817 62.0107,-113.096 64.064,-106.404"/>
</g>
<!-- 1.C -->
<g id="node3" class="node"><title>1.C</title>
<polygon fill="#ccffcc" stroke="black" points="234,-198 180,-198 180,-162 234,-162 234,-198"/>
<text text-anchor="middle" x="207" y="-175.8" font-family="Times,serif" font-size="14.00">1.C</text>
</g>
<!-- 1.C&#45;&gt;1.A -->
<g id="edge3" class="edge"><title>1.C&#45;&gt;1.A</title>
<path fill="none" stroke="#000000" d="M179.597,-163.798C171.168,-158.626 161.707,-152.82 152.776,-147.34"/>
<polygon fill="#000000" stroke="#000000" points="154.435,-144.251 144.081,-142.004 150.774,-150.218 154.435,-144.251"/>
</g>
<!-- 2.G -->
<g id="node5" class="node"><title>2.G</title>
<polygon fill="#ffffcc" stroke="black" points="144,-64.5442 144,-79.4558 128.184,-90 105.816,-90 90,-79.4558 90,-64.5442 105.816,-54 128.184,-54 144,-64.5442"/>
<text text-anchor="middle" x="117" y="-67.8" font-family="Times,serif" font-size="14.00">2.G</text>
</g>
<!-- 2.G&#45;&gt;2.A -->
<g id="edge1" class="edge"><title>2.G&#45;&gt;2.A</title>
<path fill="none" stroke="#000000" d="M90.0731,-79.9549C81.7481,-82.5091 72.3785,-85.3839 63.4905,-88.1109"/>
<polygon fill="#000000" stroke="#000000" points="62.2751,-84.8227 53.7416,-91.102 64.3284,-91.5148 62.2751,-84.8227"/>
</g>
<!-- 2.F -->
<g id="node6" class="node"><title>2.F</title>
<polygon fill="#ffffcc" stroke="black" points="234,-118.544 234,-133.456 218.184,-144 195.816,-144 180,-133.456 180,-118.544 195.816,-108 218.184,-108 234,-118.544"/>
<text text-anchor="middle" x="207" y="-121.8" font-family="Times,serif" font-size="14.00">2.F</text>
</g>
<!-- 2.F&#45;&gt;1.A -->
<g id="edge7" class="edge"><title>2.F&#45;&gt;1.A</title>
<path fill="none" stroke="#ff0000" d="M179.597,-126C171.607,-126 162.689,-126 154.176,-126"/>
<polygon fill="#ff0000" stroke="#ff0000" points="154.081,-122.5 144.081,-126 154.081,-129.5 154.081,-122.5"/>
</g>
<!-- 1.B\n2.B -->
<g id="node7" class="node"><title>1.B\n2.B</title>
<path fill="#eeeeee" stroke="black" d="M222,-90C222,-90 192,-90 192,-90 186,-90 180,-84 180,-78 180,-78 180,-66 180,-66 180,-60 186,-54 192,-54 192,-54 222,-54 222,-54 228,-54 234,-60 234,-66 234,-66 234,-78 234,-78 234,-84 228,-90 222,-90"/>
<text text-anchor="middle" x="207" y="-74.8" font-family="Times,serif" font-size="14.00">1.B</text>
<text text-anchor="middle" x="207" y="-60.8" font-family="Times,serif" font-size="14.00">2.B</text>
</g>
<!-- 1.B\n2.B&#45;&gt;1.A -->
<g id="edge2" class="edge"><title>1.B\n2.B&#45;&gt;1.A</title>
<path fill="none" stroke="#000000" d="M179.597,-88.2018C171.168,-93.3743 161.707,-99.18 152.776,-104.66"/>
<polygon fill="#000000" stroke="#000000" points="150.774,-101.782 144.081,-109.996 154.435,-107.749 150.774,-101.782"/>
</g>
<!-- 1.D\n2.D -->
<g id="node8" class="node"><title>1.D\n2.D</title>
<path fill="#eeeeee" stroke="black" d="M222,-36C222,-36 192,-36 192,-36 186,-36 180,-30 180,-24 180,-24 180,-12 180,-12 180,-6 186,-0 192,-0 192,-0 222,-0 222,-0 228,-0 234,-6 234,-12 234,-12 234,-24 234,-24 234,-30 228,-36 222,-36"/>
<text text-anchor="middle" x="207" y="-20.8" font-family="Times,serif" font-size="14.00">1.D</text>
<text text-anchor="middle" x="207" y="-6.8" font-family="Times,serif" font-size="14.00">2.D</text>
</g>
<!-- 1.D\n2.D&#45;&gt;1.A -->
<g id="edge5" class="edge"><title>1.D\n2.D&#45;&gt;1.A</title>
<path fill="none" stroke="#000000" d="M187.644,-36.1917C184.993,-39.0642 182.365,-42.0587 180,-45 161.924,-67.4781 162.076,-76.5219 144,-99 143.704,-99.3677 143.405,-99.7362 143.101,-100.105"/>
<polygon fill="#000000" stroke="#000000" points="140.311,-97.9791 136.356,-107.808 145.577,-102.59 140.311,-97.9791"/>
</g>
</g>
</svg>
