<?xml version="1.0" encoding="UTF-8" standalone="no"?>
<!DOCTYPE svg PUBLIC "-//W3C//DTD SVG 1.1//EN"
 "http://www.w3.org/Graphics/SVG/1.1/DTD/svg11.dtd">
<!-- Generated by graphviz version 2.36.0 (20140111.2315)
 -->
<!-- Title: %3 Pages: 1 -->
<svg width="356pt" height="566pt"
 viewBox="0.00 0.00 356.00 566.00" xmlns="http://www.w3.org/2000/svg" xmlns:xlink="http://www.w3.org/1999/xlink">
<g id="graph0" class="graph" transform="scale(1 1) rotate(0) translate(4 562)">
<title>%3</title>
<polygon fill="white" stroke="none" points="-4,4 -4,-562 352,-562 352,4 -4,4"/>
<!-- 1.C -->
<g id="node1" class="node"><title>1.C</title>
<polygon fill="#ccffcc" stroke="black" points="348,-498 294,-498 294,-462 348,-462 348,-498"/>
<text text-anchor="middle" x="321" y="-475.8" font-family="Times,serif" font-size="14.00">1.C</text>
</g>
<!-- 1.A -->
<g id="node2" class="node"><title>1.A</title>
<polygon fill="#ccffcc" stroke="black" points="152,-239 98,-239 98,-203 152,-203 152,-239"/>
<text text-anchor="middle" x="125" y="-216.8" font-family="Times,serif" font-size="14.00">1.A</text>
</g>
<!-- 1.C&#45;&gt;1.A -->
<g id="edge5" class="edge"><title>1.C&#45;&gt;1.A</title>
<path fill="none" stroke="#67281d" d="M318.883,-461.993C314.664,-400.589 297.455,-201.119 250,-163 231.289,-147.97 218.578,-154.862 196,-163 190.914,-164.833 171.22,-181.319 154.012,-196.247"/>
<polygon fill="#67281d" stroke="#67281d" points="151.577,-193.727 146.342,-202.938 156.179,-199.002 151.577,-193.727"/>
<text text-anchor="middle" x="223" y="-165.8" font-family="Times,serif" font-size="14.00">6</text>
</g>
<!-- 2.F -->
<g id="node4" class="node"><title>2.F</title>
<polygon fill="#ffffcc" stroke="black" points="250,-532.544 250,-547.456 234.184,-558 211.816,-558 196,-547.456 196,-532.544 211.816,-522 234.184,-522 250,-532.544"/>
<text text-anchor="middle" x="223" y="-535.8" font-family="Times,serif" font-size="14.00">2.F</text>
</g>
<!-- 1.C&#45;&gt;2.F -->
<g id="edge7" class="edge"><title>1.C&#45;&gt;2.F</title>
<path fill="none" stroke="#39683f" d="M293.768,-496.395C280.777,-504.514 265.088,-514.32 251.88,-522.575"/>
<polygon fill="#39683f" stroke="#39683f" points="249.821,-519.734 243.196,-528.002 253.531,-525.67 249.821,-519.734"/>
<text text-anchor="middle" x="272" y="-513.8" font-family="Times,serif" font-size="14.00">3</text>
</g>
<!-- 1.A\n2.A -->
<g id="node9" class="node"><title>1.A\n2.A</title>
<path fill="#eeeeee" stroke="black" d="M140,-450C140,-450 110,-450 110,-450 104,-450 98,-444 98,-438 98,-438 98,-426 98,-426 98,-420 104,-414 110,-414 110,-414 140,-414 140,-414 146,-414 152,-420 152,-426 152,-426 152,-438 152,-438 152,-444 146,-450 140,-450"/>
<text text-anchor="middle" x="125" y="-434.8" font-family="Times,serif" font-size="14.00">1.A</text>
<text text-anchor="middle" x="125" y="-420.8" font-family="Times,serif" font-size="14.00">2.A</text>
</g>
<!-- 1.C&#45;&gt;1.A\n2.A -->
<g id="edge6" class="edge"><title>1.C&#45;&gt;1.A\n2.A</title>
<path fill="none" stroke="#1b9356" d="M293.935,-475.956C263.759,-470.967 212.729,-461.576 170,-449 167.366,-448.225 164.667,-447.361 161.965,-446.445"/>
<polygon fill="#1b9356" stroke="#1b9356" points="162.876,-443.053 152.281,-442.965 160.508,-449.641 162.876,-443.053"/>
<text text-anchor="middle" x="223" y="-469.8" font-family="Times,serif" font-size="14.00">1</text>
</g>
<!-- 2.A -->
<g id="node5" class="node"><title>2.A</title>
<polygon fill="#ffffcc" stroke="black" points="54,-184.544 54,-199.456 38.1838,-210 15.8162,-210 1.06581e-14,-199.456 7.10543e-15,-184.544 15.8162,-174 38.1838,-174 54,-184.544"/>
<text text-anchor="middle" x="27" y="-187.8" font-family="Times,serif" font-size="14.00">2.A</text>
</g>
<!-- 1.A&#45;&gt;2.A -->
<g id="edge1" class="edge"><title>1.A&#45;&gt;2.A</title>
<path fill="none" stroke="#67281d" d="M97.7676,-213.076C87.2049,-209.885 74.8581,-206.155 63.5118,-202.728"/>
<polygon fill="#67281d" stroke="#67281d" points="64.4532,-199.356 53.8683,-199.814 62.4289,-206.057 64.4532,-199.356"/>
<text text-anchor="middle" x="76" y="-209.8" font-family="Times,serif" font-size="14.00">6</text>
</g>
<!-- 1.E -->
<g id="node3" class="node"><title>1.E</title>
<polygon fill="#ccffcc" stroke="black" points="250,-412 196,-412 196,-376 250,-376 250,-412"/>
<text text-anchor="middle" x="223" y="-389.8" font-family="Times,serif" font-size="14.00">1.E</text>
</g>
<!-- 1.E&#45;&gt;1.A -->
<g id="edge11" class="edge"><title>1.E&#45;&gt;1.A</title>
<path fill="none" stroke="#583d29" d="M213.781,-375.785C205.325,-357.4 191.517,-328.324 178,-304 167.268,-284.687 154.034,-263.596 143.602,-247.508"/>
<polygon fill="#583d29" stroke="#583d29" points="146.528,-245.587 138.129,-239.128 140.667,-249.414 146.528,-245.587"/>
<text text-anchor="middle" x="174" y="-306.8" font-family="Times,serif" font-size="14.00">5</text>
</g>
<!-- 1.E&#45;&gt;1.A\n2.A -->
<g id="edge12" class="edge"><title>1.E&#45;&gt;1.A\n2.A</title>
<path fill="none" stroke="#1b9356" d="M204.339,-412.165C196.871,-418.674 187.666,-425.309 178,-429 173.058,-430.887 167.659,-432.069 162.271,-432.768"/>
<polygon fill="#1b9356" stroke="#1b9356" points="161.735,-429.3 152.043,-433.579 162.288,-436.278 161.735,-429.3"/>
<text text-anchor="middle" x="174" y="-433.8" font-family="Times,serif" font-size="14.00">1</text>
</g>
<!-- 2.F&#45;&gt;1.A -->
<g id="edge15" class="edge"><title>2.F&#45;&gt;1.A</title>
<path fill="none" stroke="#2a7e4a" d="M209.392,-523.273C196.963,-505.773 178.618,-477 170,-449 148.43,-378.918 169.971,-356.09 152,-285 148.863,-272.59 143.822,-259.403 139.01,-248.244"/>
<polygon fill="#2a7e4a" stroke="#2a7e4a" points="142.169,-246.733 134.894,-239.03 135.778,-249.588 142.169,-246.733"/>
<text text-anchor="middle" x="174" y="-469.8" font-family="Times,serif" font-size="14.00">2</text>
</g>
<!-- 2.F&#45;&gt;2.A -->
<g id="edge17" class="edge"><title>2.F&#45;&gt;2.A</title>
<path fill="none" stroke="#67281d" d="M199.948,-550.19C190.38,-553.132 179.268,-554.485 170,-550 123.578,-527.534 121.029,-505.146 98,-459 57.432,-377.708 38.5595,-270.384 31.498,-220.171"/>
<polygon fill="#67281d" stroke="#67281d" points="34.9409,-219.512 30.1304,-210.073 28.0042,-220.452 34.9409,-219.512"/>
<text text-anchor="middle" x="125" y="-541.8" font-family="Times,serif" font-size="14.00">6</text>
</g>
<!-- 2.F&#45;&gt;1.A\n2.A -->
<g id="edge16" class="edge"><title>2.F&#45;&gt;1.A\n2.A</title>
<path fill="none" stroke="#1b9356" d="M195.872,-538.632C186.877,-537.028 177.253,-533.913 170,-528 149.117,-510.977 137.71,-481.864 131.782,-460.151"/>
<polygon fill="#1b9356" stroke="#1b9356" points="135.109,-459.027 129.294,-450.171 128.317,-460.721 135.109,-459.027"/>
<text text-anchor="middle" x="174" y="-534.8" font-family="Times,serif" font-size="14.00">1</text>
</g>
<!-- 2.G -->
<g id="node6" class="node"><title>2.G</title>
<polygon fill="#ffffcc" stroke="black" points="250,-84.5442 250,-99.4558 234.184,-110 211.816,-110 196,-99.4558 196,-84.5442 211.816,-74 234.184,-74 250,-84.5442"/>
<text text-anchor="middle" x="223" y="-87.8" font-family="Times,serif" font-size="14.00">2.G</text>
</g>
<!-- 2.G&#45;&gt;1.A -->
<g id="edge18" class="edge"><title>2.G&#45;&gt;1.A</title>
<path fill="none" stroke="#1b9356" d="M196.272,-99.7342C186.777,-103.775 176.708,-109.665 170,-118 149.588,-143.36 166.607,-159.907 152,-189 151.085,-190.823 150.051,-192.637 148.936,-194.421"/>
<polygon fill="#1b9356" stroke="#1b9356" points="145.787,-192.813 142.866,-202.997 151.5,-196.857 145.787,-192.813"/>
<text text-anchor="middle" x="174" y="-120.8" font-family="Times,serif" font-size="14.00">1</text>
</g>
<!-- 2.G&#45;&gt;2.A -->
<g id="edge20" class="edge"><title>2.G&#45;&gt;2.A</title>
<path fill="none" stroke="#583d29" d="M203.668,-79.3679C193.69,-74.0724 181.141,-69.975 170,-74 118.69,-92.5364 72.8404,-138.583 47.8699,-167.366"/>
<polygon fill="#583d29" stroke="#583d29" points="44.9028,-165.454 41.1004,-175.343 50.2397,-169.983 44.9028,-165.454"/>
<text text-anchor="middle" x="125" y="-119.8" font-family="Times,serif" font-size="14.00">5</text>
</g>
<!-- 2.G&#45;&gt;1.A\n2.A -->
<g id="edge19" class="edge"><title>2.G&#45;&gt;1.A\n2.A</title>
<path fill="none" stroke="#1b9356" d="M206.723,-107.065C202.546,-112.055 198.488,-117.903 196,-124 163.285,-204.175 200.281,-234.323 178,-318 176.802,-322.501 153.929,-372.011 138.922,-404.287"/>
<polygon fill="#1b9356" stroke="#1b9356" points="135.596,-403.139 134.549,-413.682 141.942,-406.093 135.596,-403.139"/>
<text text-anchor="middle" x="174" y="-336.8" font-family="Times,serif" font-size="14.00">1</text>
</g>
<!-- 1.D\n2.D -->
<g id="node7" class="node"><title>1.D\n2.D</title>
<path fill="#eeeeee" stroke="black" d="M238,-325C238,-325 208,-325 208,-325 202,-325 196,-319 196,-313 196,-313 196,-301 196,-301 196,-295 202,-289 208,-289 208,-289 238,-289 238,-289 244,-289 250,-295 250,-301 250,-301 250,-313 250,-313 250,-319 244,-325 238,-325"/>
<text text-anchor="middle" x="223" y="-309.8" font-family="Times,serif" font-size="14.00">1.D</text>
<text text-anchor="middle" x="223" y="-295.8" font-family="Times,serif" font-size="14.00">2.D</text>
</g>
<!-- 1.D\n2.D&#45;&gt;1.A -->
<g id="edge8" class="edge"><title>1.D\n2.D&#45;&gt;1.A</title>
<path fill="none" stroke="#67281d" d="M213.489,-288.824C205.94,-274.422 193.685,-254.678 178,-242 173.198,-238.118 167.583,-234.871 161.854,-232.182"/>
<polygon fill="#67281d" stroke="#67281d" points="162.803,-228.786 152.226,-228.171 160.111,-235.248 162.803,-228.786"/>
<text text-anchor="middle" x="174" y="-244.8" font-family="Times,serif" font-size="14.00">6</text>
</g>
<!-- 1.D\n2.D&#45;&gt;2.A -->
<g id="edge10" class="edge"><title>1.D\n2.D&#45;&gt;2.A</title>
<path fill="none" stroke="#67281d" d="M195.83,-301.562C187.403,-299.389 178.143,-296.547 170,-293 124.002,-272.964 78.0069,-236.5 51.3154,-213.302"/>
<polygon fill="#67281d" stroke="#67281d" points="53.4879,-210.551 43.673,-206.561 48.8575,-215.801 53.4879,-210.551"/>
<text text-anchor="middle" x="125" y="-285.8" font-family="Times,serif" font-size="14.00">6</text>
</g>
<!-- 1.D\n2.D&#45;&gt;1.A\n2.A -->
<g id="edge9" class="edge"><title>1.D\n2.D&#45;&gt;1.A\n2.A</title>
<path fill="none" stroke="#1b9356" d="M215.273,-325.29C207.978,-343.499 195.054,-371.603 178,-392 172.863,-398.144 166.625,-403.93 160.279,-409.092"/>
<polygon fill="#1b9356" stroke="#1b9356" points="158.039,-406.399 152.256,-415.276 162.313,-411.943 158.039,-406.399"/>
<text text-anchor="middle" x="174" y="-401.8" font-family="Times,serif" font-size="14.00">1</text>
</g>
<!-- 1.B\n2.B -->
<g id="node8" class="node"><title>1.B\n2.B</title>
<path fill="#eeeeee" stroke="black" d="M238,-222C238,-222 208,-222 208,-222 202,-222 196,-216 196,-210 196,-210 196,-198 196,-198 196,-192 202,-186 208,-186 208,-186 238,-186 238,-186 244,-186 250,-192 250,-198 250,-198 250,-210 250,-210 250,-216 244,-222 238,-222"/>
<text text-anchor="middle" x="223" y="-206.8" font-family="Times,serif" font-size="14.00">1.B</text>
<text text-anchor="middle" x="223" y="-192.8" font-family="Times,serif" font-size="14.00">2.B</text>
</g>
<!-- 1.B\n2.B&#45;&gt;1.A -->
<g id="edge2" class="edge"><title>1.B\n2.B&#45;&gt;1.A</title>
<path fill="none" stroke="#67281d" d="M195.909,-202.829C187.572,-202.9 178.344,-203.447 170,-205 167.32,-205.499 164.588,-206.141 161.863,-206.881"/>
<polygon fill="#67281d" stroke="#67281d" points="160.64,-203.596 152.13,-209.907 162.718,-210.281 160.64,-203.596"/>
<text text-anchor="middle" x="174" y="-207.8" font-family="Times,serif" font-size="14.00">6</text>
</g>
<!-- 1.B\n2.B&#45;&gt;2.A -->
<g id="edge4" class="edge"><title>1.B\n2.B&#45;&gt;2.A</title>
<path fill="none" stroke="#67281d" d="M195.943,-192.769C182.994,-187.786 166.953,-182.492 152,-180 122.692,-175.115 89.1316,-178.929 64.3218,-183.512"/>
<polygon fill="#67281d" stroke="#67281d" points="63.3944,-180.127 54.2628,-185.5 64.7516,-186.994 63.3944,-180.127"/>
<text text-anchor="middle" x="125" y="-182.8" font-family="Times,serif" font-size="14.00">6</text>
</g>
<!-- 1.B\n2.B&#45;&gt;1.A\n2.A -->
<g id="edge3" class="edge"><title>1.B\n2.B&#45;&gt;1.A\n2.A</title>
<path fill="none" stroke="#1b9356" d="M215.207,-222.274C209.651,-237.574 201.794,-260.046 196,-280 186.441,-312.92 191.814,-323.627 178,-355 170.087,-372.972 157.941,-391.263 147.378,-405.506"/>
<polygon fill="#1b9356" stroke="#1b9356" points="144.327,-403.735 141.057,-413.812 149.898,-407.974 144.327,-403.735"/>
<text text-anchor="middle" x="174" y="-372.8" font-family="Times,serif" font-size="14.00">1</text>
</g>
<!-- 1.E\n2.G -->
<g id="node10" class="node"><title>1.E\n2.G</title>
<path fill="#eeeeee" stroke="black" d="M238,-36C238,-36 208,-36 208,-36 202,-36 196,-30 196,-24 196,-24 196,-12 196,-12 196,-6 202,-0 208,-0 208,-0 238,-0 238,-0 244,-0 250,-6 250,-12 250,-12 250,-24 250,-24 250,-30 244,-36 238,-36"/>
<text text-anchor="middle" x="223" y="-20.8" font-family="Times,serif" font-size="14.00">1.E</text>
<text text-anchor="middle" x="223" y="-6.8" font-family="Times,serif" font-size="14.00">2.G</text>
</g>
<!-- 1.E\n2.G&#45;&gt;1.A -->
<g id="edge13" class="edge"><title>1.E\n2.G&#45;&gt;1.A</title>
<path fill="none" stroke="#1b9356" d="M206.145,-36.1172C194.364,-50.556 178.858,-71.8018 170,-93 153.264,-133.054 170.248,-149.611 152,-189 151.165,-190.802 150.206,-192.59 149.158,-194.345"/>
<polygon fill="#1b9356" stroke="#1b9356" points="146.15,-192.542 143.362,-202.764 151.916,-196.512 146.15,-192.542"/>
<text text-anchor="middle" x="174" y="-95.8" font-family="Times,serif" font-size="14.00">1</text>
</g>
<!-- 1.E\n2.G&#45;&gt;2.A -->
<g id="edge14" class="edge"><title>1.E\n2.G&#45;&gt;2.A</title>
<path fill="none" stroke="#1b9356" d="M195.768,-22.4172C168.604,-28.1526 126.257,-40.4818 98,-65 67.1769,-91.7449 47.3228,-135.537 36.9045,-164.067"/>
<polygon fill="#1b9356" stroke="#1b9356" points="33.4884,-163.232 33.4902,-173.827 40.0959,-165.544 33.4884,-163.232"/>
<text text-anchor="middle" x="125" y="-67.8" font-family="Times,serif" font-size="14.00">1</text>
</g>
</g>
</svg>
