<?xml version="1.0" encoding="UTF-8" standalone="no"?>
<!DOCTYPE svg PUBLIC "-//W3C//DTD SVG 1.1//EN"
 "http://www.w3.org/Graphics/SVG/1.1/DTD/svg11.dtd">
<!-- Generated by graphviz version 2.36.0 (20140111.2315)
 -->
<!-- Title: %3 Pages: 1 -->
<svg width="394pt" height="244pt"
 viewBox="0.00 0.00 394.00 244.35" xmlns="http://www.w3.org/2000/svg" xmlns:xlink="http://www.w3.org/1999/xlink">
<g id="graph0" class="graph" transform="scale(1 1) rotate(0) translate(4 240.352)">
<title>%3</title>
<polygon fill="white" stroke="none" points="-4,4 -4,-240.352 390,-240.352 390,4 -4,4"/>
<!-- 1.B -->
<g id="node1" class="node"><title>1.B</title>
<polygon fill="#ccffcc" stroke="black" points="146,-236.352 92,-236.352 92,-200.352 146,-200.352 146,-236.352"/>
<text text-anchor="middle" x="119" y="-214.152" font-family="Times,serif" font-size="14.00">1.B</text>
</g>
<!-- 2.B -->
<g id="node10" class="node"><title>2.B</title>
<polygon fill="#ffffcc" stroke="black" points="294,-210.896 294,-225.807 278.184,-236.352 255.816,-236.352 240,-225.807 240,-210.896 255.816,-200.352 278.184,-200.352 294,-210.896"/>
<text text-anchor="middle" x="267" y="-214.152" font-family="Times,serif" font-size="14.00">2.B</text>
</g>
<!-- 1.B&#45;&gt;2.B -->
<g id="edge12" class="edge"><title>1.B&#45;&gt;2.B</title>
<path fill="none" stroke="#aa00ff" stroke-width="3" stroke-dasharray="1,5" d="M146.102,-218.352C169.314,-218.352 203.498,-218.352 229.432,-218.352"/>
<polygon fill="#aa00ff" stroke="#aa00ff" stroke-width="3" points="229.632,-221.852 239.632,-218.352 229.632,-214.852 229.632,-221.852"/>
<text text-anchor="middle" x="193" y="-221.152" font-family="Times,serif" font-size="14.00">==</text>
</g>
<!-- 1.E -->
<g id="node2" class="node"><title>1.E</title>
<polygon fill="#ccffcc" stroke="black" points="146,-182.352 92,-182.352 92,-146.352 146,-146.352 146,-182.352"/>
<text text-anchor="middle" x="119" y="-160.152" font-family="Times,serif" font-size="14.00">1.E</text>
</g>
<!-- 2.G -->
<g id="node8" class="node"><title>2.G</title>
<polygon fill="#ffffcc" stroke="black" points="294,-156.896 294,-171.807 278.184,-182.352 255.816,-182.352 240,-171.807 240,-156.896 255.816,-146.352 278.184,-146.352 294,-156.896"/>
<text text-anchor="middle" x="267" y="-160.152" font-family="Times,serif" font-size="14.00">2.G</text>
</g>
<!-- 1.E&#45;&gt;2.G -->
<g id="edge13" class="edge"><title>1.E&#45;&gt;2.G</title>
<path fill="none" stroke="#aa00ff" stroke-width="3" stroke-dasharray="1,5" d="M146.102,-164.352C169.314,-164.352 203.498,-164.352 229.432,-164.352"/>
<polygon fill="#aa00ff" stroke="#aa00ff" stroke-width="3" points="229.632,-167.852 239.632,-164.352 229.632,-160.852 229.632,-167.852"/>
<text text-anchor="middle" x="193" y="-167.152" font-family="Times,serif" font-size="14.00">== OR &gt;&lt;</text>
</g>
<!-- 1.D -->
<g id="node3" class="node"><title>1.D</title>
<polygon fill="#ccffcc" stroke="black" points="146,-128.352 92,-128.352 92,-92.3515 146,-92.3515 146,-128.352"/>
<text text-anchor="middle" x="119" y="-106.152" font-family="Times,serif" font-size="14.00">1.D</text>
</g>
<!-- 2.D -->
<g id="node9" class="node"><title>2.D</title>
<polygon fill="#ffffcc" stroke="black" points="294,-102.896 294,-117.807 278.184,-128.352 255.816,-128.352 240,-117.807 240,-102.896 255.816,-92.3515 278.184,-92.3515 294,-102.896"/>
<text text-anchor="middle" x="267" y="-106.152" font-family="Times,serif" font-size="14.00">2.D</text>
</g>
<!-- 1.D&#45;&gt;2.D -->
<g id="edge11" class="edge"><title>1.D&#45;&gt;2.D</title>
<path fill="none" stroke="#aa00ff" stroke-width="3" stroke-dasharray="1,5" d="M146.102,-110.352C169.314,-110.352 203.498,-110.352 229.432,-110.352"/>
<polygon fill="#aa00ff" stroke="#aa00ff" stroke-width="3" points="229.632,-113.852 239.632,-110.352 229.632,-106.852 229.632,-113.852"/>
<text text-anchor="middle" x="193" y="-113.152" font-family="Times,serif" font-size="14.00">==</text>
</g>
<!-- 1.A -->
<g id="node4" class="node"><title>1.A</title>
<polygon fill="#ccffcc" stroke="black" points="54,-128.352 0,-128.352 0,-92.3515 54,-92.3515 54,-128.352"/>
<text text-anchor="middle" x="27" y="-106.152" font-family="Times,serif" font-size="14.00">1.A</text>
</g>
<!-- 1.A&#45;&gt;1.B -->
<g id="edge2" class="edge"><title>1.A&#45;&gt;1.B</title>
<path fill="none" stroke="#000000" d="M47.5529,-136.412C59.9156,-152.553 76.4441,-173.53 92,-191.352 94.5676,-194.293 97.3598,-197.339 100.13,-200.279"/>
<polygon fill="#000000" stroke="#000000" points="50.3371,-134.291 41.4949,-128.454 44.7675,-138.531 50.3371,-134.291"/>
</g>
<!-- 1.A&#45;&gt;1.E -->
<g id="edge4" class="edge"><title>1.A&#45;&gt;1.E</title>
<path fill="none" stroke="#000000" d="M62.6527,-131.143C72.3053,-136.935 82.6294,-143.129 91.715,-148.581"/>
<polygon fill="#000000" stroke="#000000" points="64.4074,-128.114 54.0317,-125.971 60.8059,-134.117 64.4074,-128.114"/>
</g>
<!-- 1.A&#45;&gt;1.D -->
<g id="edge3" class="edge"><title>1.A&#45;&gt;1.D</title>
<path fill="none" stroke="#000000" d="M64.1351,-110.352C73.3555,-110.352 83.0929,-110.352 91.715,-110.352"/>
<polygon fill="#000000" stroke="#000000" points="64.0318,-106.852 54.0317,-110.352 64.0317,-113.852 64.0318,-106.852"/>
</g>
<!-- 1.C -->
<g id="node5" class="node"><title>1.C</title>
<polygon fill="#ccffcc" stroke="black" points="146,-74.3515 92,-74.3515 92,-38.3515 146,-38.3515 146,-74.3515"/>
<text text-anchor="middle" x="119" y="-52.1515" font-family="Times,serif" font-size="14.00">1.C</text>
</g>
<!-- 1.A&#45;&gt;1.C -->
<g id="edge1" class="edge"><title>1.A&#45;&gt;1.C</title>
<path fill="none" stroke="#000000" d="M62.6527,-89.5599C72.3053,-83.7684 82.6294,-77.5739 91.715,-72.1225"/>
<polygon fill="#000000" stroke="#000000" points="60.8059,-86.5863 54.0317,-94.7325 64.4074,-92.5887 60.8059,-86.5863"/>
</g>
<!-- 2.A -->
<g id="node7" class="node"><title>2.A</title>
<polygon fill="#ffffcc" stroke="black" points="386,-102.896 386,-117.807 370.184,-128.352 347.816,-128.352 332,-117.807 332,-102.896 347.816,-92.3515 370.184,-92.3515 386,-102.896"/>
<text text-anchor="middle" x="359" y="-106.152" font-family="Times,serif" font-size="14.00">2.A</text>
</g>
<!-- 1.A&#45;&gt;2.A -->
<g id="edge10" class="edge"><title>1.A&#45;&gt;2.A</title>
<path fill="none" stroke="#aa00ff" stroke-width="3" stroke-dasharray="1,5" d="M36.2405,-92.1656C46.2632,-72.5285 65.2244,-42.3204 92,-29.3515 172.799,9.78384 213.201,9.78384 294,-29.3515 317.01,-40.4967 334.249,-64.3734 345.004,-83.3314"/>
<polygon fill="#aa00ff" stroke="#aa00ff" stroke-width="3" points="341.938,-85.0193 349.759,-92.1656 348.101,-81.7013 341.938,-85.0193"/>
<text text-anchor="middle" x="193" y="-6.15153" font-family="Times,serif" font-size="14.00">&lt; OR ==</text>
</g>
<!-- 2.F -->
<g id="node6" class="node"><title>2.F</title>
<polygon fill="#ffffcc" stroke="black" points="294,-48.8957 294,-63.8074 278.184,-74.3515 255.816,-74.3515 240,-63.8074 240,-48.8957 255.816,-38.3515 278.184,-38.3515 294,-48.8957"/>
<text text-anchor="middle" x="267" y="-52.1515" font-family="Times,serif" font-size="14.00">2.F</text>
</g>
<!-- 1.C&#45;&gt;2.F -->
<g id="edge9" class="edge"><title>1.C&#45;&gt;2.F</title>
<path fill="none" stroke="#aa00ff" stroke-width="3" stroke-dasharray="1,5" d="M146.102,-56.3515C169.314,-56.3515 203.498,-56.3515 229.432,-56.3515"/>
<polygon fill="#aa00ff" stroke="#aa00ff" stroke-width="3" points="229.632,-59.8516 239.632,-56.3515 229.632,-52.8516 229.632,-59.8516"/>
<text text-anchor="middle" x="193" y="-59.1515" font-family="Times,serif" font-size="14.00">&lt; OR &gt;&lt;</text>
</g>
<!-- 2.F&#45;&gt;2.A -->
<g id="edge7" class="edge"><title>2.F&#45;&gt;2.A</title>
<path fill="none" stroke="#000000" d="M287.974,-68.3359C300.176,-75.6572 315.978,-85.1384 329.482,-93.2408"/>
<polygon fill="#000000" stroke="#000000" points="328.016,-96.4427 338.392,-98.5865 331.617,-90.4402 328.016,-96.4427"/>
</g>
<!-- 2.G&#45;&gt;2.A -->
<g id="edge8" class="edge"><title>2.G&#45;&gt;2.A</title>
<path fill="none" stroke="#000000" d="M287.974,-152.367C300.176,-145.046 315.978,-135.565 329.482,-127.462"/>
<polygon fill="#000000" stroke="#000000" points="331.617,-130.263 338.392,-122.117 328.016,-124.26 331.617,-130.263"/>
</g>
<!-- 2.D&#45;&gt;2.A -->
<g id="edge6" class="edge"><title>2.D&#45;&gt;2.A</title>
<path fill="none" stroke="#000000" d="M294.032,-110.352C302.632,-110.352 312.363,-110.352 321.593,-110.352"/>
<polygon fill="#000000" stroke="#000000" points="321.715,-113.852 331.715,-110.352 321.715,-106.852 321.715,-113.852"/>
</g>
<!-- 2.B&#45;&gt;2.A -->
<g id="edge5" class="edge"><title>2.B&#45;&gt;2.A</title>
<path fill="none" stroke="#000000" d="M283.115,-203.175C286.754,-199.381 290.577,-195.274 294,-191.352 309.957,-173.07 326.938,-151.468 339.396,-135.172"/>
<polygon fill="#000000" stroke="#000000" points="342.205,-137.259 345.469,-127.18 336.632,-133.024 342.205,-137.259"/>
</g>
</g>
</svg>
