<?xml version="1.0" encoding="UTF-8" standalone="no"?>
<!DOCTYPE svg PUBLIC "-//W3C//DTD SVG 1.1//EN"
 "http://www.w3.org/Graphics/SVG/1.1/DTD/svg11.dtd">
<!-- Generated by graphviz version 2.36.0 (20140111.2315)
 -->
<!-- Title: %3 Pages: 1 -->
<svg width="332pt" height="206pt"
 viewBox="0.00 0.00 332.00 206.00" xmlns="http://www.w3.org/2000/svg" xmlns:xlink="http://www.w3.org/1999/xlink">
<g id="graph0" class="graph" transform="scale(1 1) rotate(0) translate(4 202)">
<title>%3</title>
<polygon fill="white" stroke="none" points="-4,4 -4,-202 328,-202 328,4 -4,4"/>
<!-- 1.E -->
<g id="node1" class="node"><title>1.E</title>
<polygon fill="#ccffcc" stroke="black" points="234,-198 180,-198 180,-162 234,-162 234,-198"/>
<text text-anchor="middle" x="207" y="-175.8" font-family="Times,serif" font-size="14.00">1.E</text>
</g>
<!-- 1.A -->
<g id="node2" class="node"><title>1.A</title>
<polygon fill="#ccffcc" stroke="black" points="144,-117 90,-117 90,-81 144,-81 144,-117"/>
<text text-anchor="middle" x="117" y="-94.8" font-family="Times,serif" font-size="14.00">1.A</text>
</g>
<!-- 1.E&#45;&gt;1.A -->
<g id="edge3" class="edge"><title>1.E&#45;&gt;1.A</title>
<path fill="none" stroke="#000000" d="M186.031,-161.62C173.908,-150.461 158.273,-136.069 145.049,-123.897"/>
<polygon fill="#000000" stroke="#000000" points="147.314,-121.226 137.586,-117.028 142.574,-126.376 147.314,-121.226"/>
</g>
<!-- 2.A -->
<g id="node4" class="node"><title>2.A</title>
<polygon fill="#ffffcc" stroke="black" points="54,-64.5442 54,-79.4558 38.1838,-90 15.8162,-90 1.06581e-14,-79.4558 7.10543e-15,-64.5442 15.8162,-54 38.1838,-54 54,-64.5442"/>
<text text-anchor="middle" x="27" y="-67.8" font-family="Times,serif" font-size="14.00">2.A</text>
</g>
<!-- 1.A&#45;&gt;2.A -->
<g id="edge5" class="edge"><title>1.A&#45;&gt;2.A</title>
<path fill="none" stroke="#ff0000" d="M89.5971,-90.8991C81.284,-88.3485 71.9676,-85.49 63.1464,-82.7835"/>
<polygon fill="#ff0000" stroke="#ff0000" points="64.064,-79.4041 53.4772,-79.8169 62.0107,-86.0962 64.064,-79.4041"/>
</g>
<!-- 1.C -->
<g id="node3" class="node"><title>1.C</title>
<polygon fill="#ccffcc" stroke="black" points="324,-144 270,-144 270,-108 324,-108 324,-144"/>
<text text-anchor="middle" x="297" y="-121.8" font-family="Times,serif" font-size="14.00">1.C</text>
</g>
<!-- 2.F -->
<g id="node6" class="node"><title>2.F</title>
<polygon fill="#ffffcc" stroke="black" points="234,-118.544 234,-133.456 218.184,-144 195.816,-144 180,-133.456 180,-118.544 195.816,-108 218.184,-108 234,-118.544"/>
<text text-anchor="middle" x="207" y="-121.8" font-family="Times,serif" font-size="14.00">2.F</text>
</g>
<!-- 1.C&#45;&gt;2.F -->
<g id="edge6" class="edge"><title>1.C&#45;&gt;2.F</title>
<path fill="none" stroke="#ff0000" d="M269.597,-126C261.607,-126 252.689,-126 244.176,-126"/>
<polygon fill="#ff0000" stroke="#ff0000" points="244.081,-122.5 234.081,-126 244.081,-129.5 244.081,-122.5"/>
</g>
<!-- 2.G -->
<g id="node5" class="node"><title>2.G</title>
<polygon fill="#ffffcc" stroke="black" points="144,-37.5442 144,-52.4558 128.184,-63 105.816,-63 90,-52.4558 90,-37.5442 105.816,-27 128.184,-27 144,-37.5442"/>
<text text-anchor="middle" x="117" y="-40.8" font-family="Times,serif" font-size="14.00">2.G</text>
</g>
<!-- 2.G&#45;&gt;2.A -->
<g id="edge1" class="edge"><title>2.G&#45;&gt;2.A</title>
<path fill="none" stroke="#000000" d="M90.0731,-52.9549C81.7481,-55.5091 72.3785,-58.3839 63.4905,-61.1109"/>
<polygon fill="#000000" stroke="#000000" points="62.2751,-57.8227 53.7416,-64.102 64.3284,-64.5148 62.2751,-57.8227"/>
</g>
<!-- 2.F&#45;&gt;1.A -->
<g id="edge7" class="edge"><title>2.F&#45;&gt;1.A</title>
<path fill="none" stroke="#ff0000" d="M180.073,-118.045C171.822,-115.514 162.544,-112.667 153.727,-109.962"/>
<polygon fill="#ff0000" stroke="#ff0000" points="154.633,-106.579 144.046,-106.991 152.579,-113.271 154.633,-106.579"/>
</g>
<!-- 1.B\n2.B -->
<g id="node7" class="node"><title>1.B\n2.B</title>
<path fill="#eeeeee" stroke="black" d="M222,-90C222,-90 192,-90 192,-90 186,-90 180,-84 180,-78 180,-78 180,-66 180,-66 180,-60 186,-54 192,-54 192,-54 222,-54 222,-54 228,-54 234,-60 234,-66 234,-66 234,-78 234,-78 234,-84 228,-90 222,-90"/>
<text text-anchor="middle" x="207" y="-74.8" font-family="Times,serif" font-size="14.00">1.B</text>
<text text-anchor="middle" x="207" y="-60.8" font-family="Times,serif" font-size="14.00">2.B</text>
</g>
<!-- 1.B\n2.B&#45;&gt;1.A -->
<g id="edge2" class="edge"><title>1.B\n2.B&#45;&gt;1.A</title>
<path fill="none" stroke="#000000" d="M179.597,-80.1009C171.519,-82.5794 162.493,-85.3486 153.895,-87.9866"/>
<polygon fill="#000000" stroke="#000000" points="152.614,-84.7185 144.081,-90.9979 154.668,-91.4106 152.614,-84.7185"/>
</g>
<!-- 1.D\n2.D -->
<g id="node8" class="node"><title>1.D\n2.D</title>
<path fill="#eeeeee" stroke="black" d="M222,-36C222,-36 192,-36 192,-36 186,-36 180,-30 180,-24 180,-24 180,-12 180,-12 180,-6 186,-0 192,-0 192,-0 222,-0 222,-0 228,-0 234,-6 234,-12 234,-12 234,-24 234,-24 234,-30 228,-36 222,-36"/>
<text text-anchor="middle" x="207" y="-20.8" font-family="Times,serif" font-size="14.00">1.D</text>
<text text-anchor="middle" x="207" y="-6.8" font-family="Times,serif" font-size="14.00">2.D</text>
</g>
<!-- 1.D\n2.D&#45;&gt;1.A -->
<g id="edge4" class="edge"><title>1.D\n2.D&#45;&gt;1.A</title>
<path fill="none" stroke="#000000" d="M186.031,-36.3802C173.908,-47.5395 158.273,-61.9309 145.049,-74.1027"/>
<polygon fill="#000000" stroke="#000000" points="142.574,-71.624 137.586,-80.9716 147.314,-76.7744 142.574,-71.624"/>
</g>
</g>
</svg>
