<?xml version="1.0" encoding="UTF-8" standalone="no"?>
<!DOCTYPE svg PUBLIC "-//W3C//DTD SVG 1.1//EN"
 "http://www.w3.org/Graphics/SVG/1.1/DTD/svg11.dtd">
<!-- Generated by graphviz version 2.36.0 (20140111.2315)
 -->
<!-- Title: %3 Pages: 1 -->
<svg width="242pt" height="206pt"
 viewBox="0.00 0.00 242.00 206.00" xmlns="http://www.w3.org/2000/svg" xmlns:xlink="http://www.w3.org/1999/xlink">
<g id="graph0" class="graph" transform="scale(1 1) rotate(0) translate(4 202)">
<title>%3</title>
<polygon fill="white" stroke="none" points="-4,4 -4,-202 238,-202 238,4 -4,4"/>
<!-- 1.E -->
<g id="node1" class="node"><title>1.E</title>
<polygon fill="#ccffcc" stroke="black" points="234,-198 180,-198 180,-162 234,-162 234,-198"/>
<text text-anchor="middle" x="207" y="-175.8" font-family="Times,serif" font-size="14.00">1.E</text>
</g>
<!-- 1.A -->
<g id="node2" class="node"><title>1.A</title>
<polygon fill="#ccffcc" stroke="black" points="144,-144 90,-144 90,-108 144,-108 144,-144"/>
<text text-anchor="middle" x="117" y="-121.8" font-family="Times,serif" font-size="14.00">1.A</text>
</g>
<!-- 1.E&#45;&gt;1.A -->
<g id="edge5" class="edge"><title>1.E&#45;&gt;1.A</title>
<path fill="none" stroke="#000000" d="M179.597,-163.798C171.168,-158.626 161.707,-152.82 152.776,-147.34"/>
<polygon fill="#000000" stroke="#000000" points="154.435,-144.251 144.081,-142.004 150.774,-150.218 154.435,-144.251"/>
</g>
<!-- 2.A -->
<g id="node4" class="node"><title>2.A</title>
<polygon fill="#ffffcc" stroke="black" points="54,-64.5442 54,-79.4558 38.1838,-90 15.8162,-90 1.06581e-14,-79.4558 7.10543e-15,-64.5442 15.8162,-54 38.1838,-54 54,-64.5442"/>
<text text-anchor="middle" x="27" y="-67.8" font-family="Times,serif" font-size="14.00">2.A</text>
</g>
<!-- 1.A&#45;&gt;2.A -->
<g id="edge8" class="edge"><title>1.A&#45;&gt;2.A</title>
<path fill="none" stroke="#ff0000" d="M89.5971,-109.798C78.9971,-103.294 66.7658,-95.7881 56.0099,-89.1879"/>
<polygon fill="#ff0000" stroke="#ff0000" points="57.7441,-86.1456 47.3903,-83.8986 54.0829,-92.1119 57.7441,-86.1456"/>
</g>
<!-- 1.C -->
<g id="node3" class="node"><title>1.C</title>
<polygon fill="#ccffcc" stroke="black" points="234,-36 180,-36 180,-0 234,-0 234,-36"/>
<text text-anchor="middle" x="207" y="-13.8" font-family="Times,serif" font-size="14.00">1.C</text>
</g>
<!-- 1.C&#45;&gt;1.A -->
<g id="edge1" class="edge"><title>1.C&#45;&gt;1.A</title>
<path fill="none" stroke="#000000" d="M187.644,-36.1917C184.993,-39.0642 182.365,-42.0587 180,-45 161.924,-67.4781 162.076,-76.5219 144,-99 143.704,-99.3677 143.405,-99.7362 143.101,-100.105"/>
<polygon fill="#000000" stroke="#000000" points="140.311,-97.9791 136.356,-107.808 145.577,-102.59 140.311,-97.9791"/>
</g>
<!-- 2.F -->
<g id="node6" class="node"><title>2.F</title>
<polygon fill="#ffffcc" stroke="black" points="144,-10.5442 144,-25.4558 128.184,-36 105.816,-36 90,-25.4558 90,-10.5442 105.816,-7.10543e-15 128.184,-0 144,-10.5442"/>
<text text-anchor="middle" x="117" y="-13.8" font-family="Times,serif" font-size="14.00">2.F</text>
</g>
<!-- 1.C&#45;&gt;2.F -->
<g id="edge7" class="edge"><title>1.C&#45;&gt;2.F</title>
<path fill="none" stroke="#ff0000" d="M179.597,-18C171.607,-18 162.689,-18 154.176,-18"/>
<polygon fill="#ff0000" stroke="#ff0000" points="154.081,-14.5001 144.081,-18 154.081,-21.5001 154.081,-14.5001"/>
</g>
<!-- 2.G -->
<g id="node5" class="node"><title>2.G</title>
<polygon fill="#ffffcc" stroke="black" points="144,-64.5442 144,-79.4558 128.184,-90 105.816,-90 90,-79.4558 90,-64.5442 105.816,-54 128.184,-54 144,-64.5442"/>
<text text-anchor="middle" x="117" y="-67.8" font-family="Times,serif" font-size="14.00">2.G</text>
</g>
<!-- 2.G&#45;&gt;2.A -->
<g id="edge4" class="edge"><title>2.G&#45;&gt;2.A</title>
<path fill="none" stroke="#000000" d="M89.5971,-72C81.6068,-72 72.6894,-72 64.1759,-72"/>
<polygon fill="#000000" stroke="#000000" points="64.081,-68.5001 54.081,-72 64.081,-75.5001 64.081,-68.5001"/>
</g>
<!-- 2.F&#45;&gt;2.A -->
<g id="edge3" class="edge"><title>2.F&#45;&gt;2.A</title>
<path fill="none" stroke="#000000" d="M96.4699,-29.9844C84.6212,-37.2552 69.3011,-46.6562 56.1576,-54.7215"/>
<polygon fill="#000000" stroke="#000000" points="54.1681,-51.8358 47.4755,-60.0492 57.8293,-57.8021 54.1681,-51.8358"/>
</g>
<!-- 1.B\n2.B -->
<g id="node7" class="node"><title>1.B\n2.B</title>
<path fill="#eeeeee" stroke="black" d="M222,-144C222,-144 192,-144 192,-144 186,-144 180,-138 180,-132 180,-132 180,-120 180,-120 180,-114 186,-108 192,-108 192,-108 222,-108 222,-108 228,-108 234,-114 234,-120 234,-120 234,-132 234,-132 234,-138 228,-144 222,-144"/>
<text text-anchor="middle" x="207" y="-128.8" font-family="Times,serif" font-size="14.00">1.B</text>
<text text-anchor="middle" x="207" y="-114.8" font-family="Times,serif" font-size="14.00">2.B</text>
</g>
<!-- 1.B\n2.B&#45;&gt;1.A -->
<g id="edge2" class="edge"><title>1.B\n2.B&#45;&gt;1.A</title>
<path fill="none" stroke="#000000" d="M179.597,-126C171.607,-126 162.689,-126 154.176,-126"/>
<polygon fill="#000000" stroke="#000000" points="154.081,-122.5 144.081,-126 154.081,-129.5 154.081,-122.5"/>
</g>
<!-- 1.D\n2.D -->
<g id="node8" class="node"><title>1.D\n2.D</title>
<path fill="#eeeeee" stroke="black" d="M222,-90C222,-90 192,-90 192,-90 186,-90 180,-84 180,-78 180,-78 180,-66 180,-66 180,-60 186,-54 192,-54 192,-54 222,-54 222,-54 228,-54 234,-60 234,-66 234,-66 234,-78 234,-78 234,-84 228,-90 222,-90"/>
<text text-anchor="middle" x="207" y="-74.8" font-family="Times,serif" font-size="14.00">1.D</text>
<text text-anchor="middle" x="207" y="-60.8" font-family="Times,serif" font-size="14.00">2.D</text>
</g>
<!-- 1.D\n2.D&#45;&gt;1.A -->
<g id="edge6" class="edge"><title>1.D\n2.D&#45;&gt;1.A</title>
<path fill="none" stroke="#000000" d="M179.597,-88.2018C171.168,-93.3743 161.707,-99.18 152.776,-104.66"/>
<polygon fill="#000000" stroke="#000000" points="150.774,-101.782 144.081,-109.996 154.435,-107.749 150.774,-101.782"/>
</g>
</g>
</svg>
