<?xml version="1.0" encoding="UTF-8" standalone="no"?>
<!DOCTYPE svg PUBLIC "-//W3C//DTD SVG 1.1//EN"
 "http://www.w3.org/Graphics/SVG/1.1/DTD/svg11.dtd">
<!-- Generated by graphviz version 2.36.0 (20140111.2315)
 -->
<!-- Title: %3 Pages: 1 -->
<svg width="473pt" height="335pt"
 viewBox="0.00 0.00 472.61 334.65" xmlns="http://www.w3.org/2000/svg" xmlns:xlink="http://www.w3.org/1999/xlink">
<g id="graph0" class="graph" transform="scale(1 1) rotate(0) translate(4 330.649)">
<title>%3</title>
<polygon fill="white" stroke="none" points="-4,4 -4,-330.649 468.61,-330.649 468.61,4 -4,4"/>
<!-- pw6 -->
<g id="node1" class="node"><title>pw6</title>
<path fill="#ffffcc" stroke="black" d="M42,-102.911C42,-102.911 12,-102.911 12,-102.911 6,-102.911 0,-96.9114 0,-90.9114 0,-90.9114 0,-78.9114 0,-78.9114 0,-72.9114 6,-66.9114 12,-66.9114 12,-66.9114 42,-66.9114 42,-66.9114 48,-66.9114 54,-72.9114 54,-78.9114 54,-78.9114 54,-90.9114 54,-90.9114 54,-96.9114 48,-102.911 42,-102.911"/>
<text text-anchor="middle" x="27" y="-80.7114" font-family="Times,serif" font-size="14.00">pw6</text>
</g>
<!-- pw4 -->
<g id="node2" class="node"><title>pw4</title>
<path fill="#ffffcc" stroke="black" d="M262.028,-63.6594C262.028,-63.6594 232.028,-63.6594 232.028,-63.6594 226.028,-63.6594 220.028,-57.6594 220.028,-51.6594 220.028,-51.6594 220.028,-39.6594 220.028,-39.6594 220.028,-33.6594 226.028,-27.6594 232.028,-27.6594 232.028,-27.6594 262.028,-27.6594 262.028,-27.6594 268.028,-27.6594 274.028,-33.6594 274.028,-39.6594 274.028,-39.6594 274.028,-51.6594 274.028,-51.6594 274.028,-57.6594 268.028,-63.6594 262.028,-63.6594"/>
<text text-anchor="middle" x="247.028" y="-41.4594" font-family="Times,serif" font-size="14.00">pw4</text>
</g>
<!-- pw6&#45;&gt;pw4 -->
<g id="edge2" class="edge"><title>pw6&#45;&gt;pw4</title>
<path fill="none" stroke="#000000" d="M54.4218,-80.0195C93.669,-73.018 165.965,-60.1207 209.95,-52.2738"/>
<polygon fill="#000000" stroke="#000000" points="210.722,-55.6916 219.952,-50.4896 209.492,-48.8004 210.722,-55.6916"/>
<text text-anchor="middle" x="128.686" y="-68.9467" font-family="Times,serif" font-size="14.00">3</text>
</g>
<!-- pw2 -->
<g id="node4" class="node"><title>pw2</title>
<path fill="#ffffcc" stroke="black" d="M305.149,-281.776C305.149,-281.776 275.149,-281.776 275.149,-281.776 269.149,-281.776 263.149,-275.776 263.149,-269.776 263.149,-269.776 263.149,-257.776 263.149,-257.776 263.149,-251.776 269.149,-245.776 275.149,-245.776 275.149,-245.776 305.149,-245.776 305.149,-245.776 311.149,-245.776 317.149,-251.776 317.149,-257.776 317.149,-257.776 317.149,-269.776 317.149,-269.776 317.149,-275.776 311.149,-281.776 305.149,-281.776"/>
<text text-anchor="middle" x="290.149" y="-259.576" font-family="Times,serif" font-size="14.00">pw2</text>
</g>
<!-- pw6&#45;&gt;pw2 -->
<g id="edge4" class="edge"><title>pw6&#45;&gt;pw2</title>
<path fill="none" stroke="#000000" d="M53.6803,-103.046C101.457,-135.52 201.596,-203.585 254.941,-239.845"/>
<polygon fill="#000000" stroke="#000000" points="253.16,-242.866 263.398,-245.593 257.095,-237.077 253.16,-242.866"/>
<text text-anchor="middle" x="150.811" y="-174.245" font-family="Times,serif" font-size="14.00">4</text>
</g>
<!-- pw0 -->
<g id="node6" class="node"><title>pw0</title>
<path fill="#ffffcc" stroke="black" d="M327.381,-209.881C327.381,-209.881 297.381,-209.881 297.381,-209.881 291.381,-209.881 285.381,-203.881 285.381,-197.881 285.381,-197.881 285.381,-185.881 285.381,-185.881 285.381,-179.881 291.381,-173.881 297.381,-173.881 297.381,-173.881 327.381,-173.881 327.381,-173.881 333.381,-173.881 339.381,-179.881 339.381,-185.881 339.381,-185.881 339.381,-197.881 339.381,-197.881 339.381,-203.881 333.381,-209.881 327.381,-209.881"/>
<text text-anchor="middle" x="312.381" y="-187.681" font-family="Times,serif" font-size="14.00">pw0</text>
</g>
<!-- pw4&#45;&gt;pw0 -->
<g id="edge7" class="edge"><title>pw4&#45;&gt;pw0</title>
<path fill="none" stroke="#000000" d="M255.173,-63.8828C266.424,-89.0571 286.82,-134.692 299.974,-164.122"/>
<polygon fill="#000000" stroke="#000000" points="296.857,-165.727 304.133,-173.428 303.248,-162.87 296.857,-165.727"/>
<text text-anchor="middle" x="274.073" y="-116.802" font-family="Times,serif" font-size="14.00">2</text>
</g>
<!-- pw5 -->
<g id="node3" class="node"><title>pw5</title>
<path fill="#ffffcc" stroke="black" d="M331.474,-36C331.474,-36 301.474,-36 301.474,-36 295.474,-36 289.474,-30 289.474,-24 289.474,-24 289.474,-12 289.474,-12 289.474,-6 295.474,-0 301.474,-0 301.474,-0 331.474,-0 331.474,-0 337.474,-0 343.474,-6 343.474,-12 343.474,-12 343.474,-24 343.474,-24 343.474,-30 337.474,-36 331.474,-36"/>
<text text-anchor="middle" x="316.474" y="-13.8" font-family="Times,serif" font-size="14.00">pw5</text>
</g>
<!-- pw5&#45;&gt;pw4 -->
<g id="edge3" class="edge"><title>pw5&#45;&gt;pw4</title>
<path fill="none" stroke="#000000" d="M289.426,-28.773C287.54,-29.5239 285.623,-30.2874 283.698,-31.0541"/>
<polygon fill="#000000" stroke="#000000" points="282.112,-27.9184 274.117,-34.8702 284.702,-34.4216 282.112,-27.9184"/>
<text text-anchor="middle" x="283.062" y="-32.7135" font-family="Times,serif" font-size="14.00">1</text>
</g>
<!-- pw1 -->
<g id="node7" class="node"><title>pw1</title>
<path fill="#ffffcc" stroke="black" d="M399.867,-184.885C399.867,-184.885 369.867,-184.885 369.867,-184.885 363.867,-184.885 357.867,-178.885 357.867,-172.885 357.867,-172.885 357.867,-160.885 357.867,-160.885 357.867,-154.885 363.867,-148.885 369.867,-148.885 369.867,-148.885 399.867,-148.885 399.867,-148.885 405.867,-148.885 411.867,-154.885 411.867,-160.885 411.867,-160.885 411.867,-172.885 411.867,-172.885 411.867,-178.885 405.867,-184.885 399.867,-184.885"/>
<text text-anchor="middle" x="384.867" y="-162.685" font-family="Times,serif" font-size="14.00">pw1</text>
</g>
<!-- pw5&#45;&gt;pw1 -->
<g id="edge8" class="edge"><title>pw5&#45;&gt;pw1</title>
<path fill="none" stroke="#000000" d="M324.86,-36.2562C336.705,-62.0407 358.426,-109.326 372.231,-139.377"/>
<polygon fill="#000000" stroke="#000000" points="369.057,-140.853 376.412,-148.479 375.418,-137.931 369.057,-140.853"/>
<text text-anchor="middle" x="345.046" y="-90.6166" font-family="Times,serif" font-size="14.00">2</text>
</g>
<!-- pw2&#45;&gt;pw0 -->
<g id="edge1" class="edge"><title>pw2&#45;&gt;pw0</title>
<path fill="none" stroke="#000000" d="M295.759,-245.634C298.163,-237.86 301.026,-228.6 303.694,-219.975"/>
<polygon fill="#000000" stroke="#000000" points="307.085,-220.855 306.695,-210.268 300.397,-218.787 307.085,-220.855"/>
<text text-anchor="middle" x="296.226" y="-221.604" font-family="Times,serif" font-size="14.00">1</text>
</g>
<!-- pw3 -->
<g id="node5" class="node"><title>pw3</title>
<path fill="#ffffcc" stroke="black" d="M452.61,-326.649C452.61,-326.649 422.61,-326.649 422.61,-326.649 416.61,-326.649 410.61,-320.649 410.61,-314.649 410.61,-314.649 410.61,-302.649 410.61,-302.649 410.61,-296.649 416.61,-290.649 422.61,-290.649 422.61,-290.649 452.61,-290.649 452.61,-290.649 458.61,-290.649 464.61,-296.649 464.61,-302.649 464.61,-302.649 464.61,-314.649 464.61,-314.649 464.61,-320.649 458.61,-326.649 452.61,-326.649"/>
<text text-anchor="middle" x="437.61" y="-304.449" font-family="Times,serif" font-size="14.00">pw3</text>
</g>
<!-- pw3&#45;&gt;pw2 -->
<g id="edge6" class="edge"><title>pw3&#45;&gt;pw2</title>
<path fill="none" stroke="#000000" d="M410.563,-300.418C387.148,-293.293 353.061,-282.92 327.126,-275.028"/>
<polygon fill="#000000" stroke="#000000" points="327.859,-271.593 317.273,-272.03 325.821,-278.29 327.859,-271.593"/>
<text text-anchor="middle" x="365.345" y="-290.523" font-family="Times,serif" font-size="14.00">2</text>
</g>
<!-- pw3&#45;&gt;pw1 -->
<g id="edge5" class="edge"><title>pw3&#45;&gt;pw1</title>
<path fill="none" stroke="#000000" d="M430.823,-290.406C421.803,-266.162 405.781,-223.098 395.24,-194.767"/>
<polygon fill="#000000" stroke="#000000" points="398.395,-193.21 391.628,-185.058 391.835,-195.651 398.395,-193.21"/>
<text text-anchor="middle" x="409.531" y="-245.386" font-family="Times,serif" font-size="14.00">2</text>
</g>
<!-- pw1&#45;&gt;pw0 -->
<g id="edge9" class="edge"><title>pw1&#45;&gt;pw0</title>
<path fill="none" stroke="#000000" d="M357.463,-176.335C354.847,-177.237 352.166,-178.162 349.478,-179.089"/>
<polygon fill="#000000" stroke="#000000" points="348.136,-175.849 339.823,-182.418 350.418,-182.467 348.136,-175.849"/>
<text text-anchor="middle" x="349.97" y="-180.512" font-family="Times,serif" font-size="14.00">1</text>
</g>
</g>
</svg>
