<?xml version="1.0" encoding="UTF-8" standalone="no"?>
<!DOCTYPE svg PUBLIC "-//W3C//DTD SVG 1.1//EN"
 "http://www.w3.org/Graphics/SVG/1.1/DTD/svg11.dtd">
<!-- Generated by graphviz version 2.36.0 (20140111.2315)
 -->
<!-- Title: %3 Pages: 1 -->
<svg width="250pt" height="126pt"
 viewBox="0.00 0.00 250.00 125.98" xmlns="http://www.w3.org/2000/svg" xmlns:xlink="http://www.w3.org/1999/xlink">
<g id="graph0" class="graph" transform="scale(1 1) rotate(0) translate(4 121.98)">
<title>%3</title>
<polygon fill="white" stroke="none" points="-4,4 -4,-121.98 246,-121.98 246,4 -4,4"/>
<!-- 1.A -->
<g id="node1" class="node"><title>1.A</title>
<polygon fill="#ccffcc" stroke="black" points="54,-63.9803 0,-63.9803 0,-27.9803 54,-27.9803 54,-63.9803"/>
<text text-anchor="middle" x="27" y="-41.7803" font-family="Times,serif" font-size="14.00">1.A</text>
</g>
<!-- 1.B -->
<g id="node2" class="node"><title>1.B</title>
<polygon fill="#ccffcc" stroke="black" points="146,-117.98 92,-117.98 92,-81.9803 146,-81.9803 146,-117.98"/>
<text text-anchor="middle" x="119" y="-95.7803" font-family="Times,serif" font-size="14.00">1.B</text>
</g>
<!-- 1.A&#45;&gt;1.B -->
<g id="edge1" class="edge"><title>1.A&#45;&gt;1.B</title>
<path fill="none" stroke="#000000" d="M62.6527,-66.772C72.3053,-72.5635 82.6294,-78.758 91.715,-84.2093"/>
<polygon fill="#000000" stroke="#000000" points="64.4074,-63.7431 54.0317,-61.5994 60.8059,-69.7456 64.4074,-63.7431"/>
</g>
<!-- 1.C -->
<g id="node3" class="node"><title>1.C</title>
<polygon fill="#ccffcc" stroke="black" points="146,-63.9803 92,-63.9803 92,-27.9803 146,-27.9803 146,-63.9803"/>
<text text-anchor="middle" x="119" y="-41.7803" font-family="Times,serif" font-size="14.00">1.C</text>
</g>
<!-- 1.A&#45;&gt;1.C -->
<g id="edge2" class="edge"><title>1.A&#45;&gt;1.C</title>
<path fill="none" stroke="#000000" d="M64.1351,-45.9803C73.3555,-45.9803 83.0929,-45.9803 91.715,-45.9803"/>
<polygon fill="#000000" stroke="#000000" points="64.0318,-42.4804 54.0317,-45.9803 64.0317,-49.4804 64.0318,-42.4804"/>
</g>
<!-- 2.D -->
<g id="node4" class="node"><title>2.D</title>
<polygon fill="#ffffcc" stroke="black" points="242,-38.5245 242,-53.4362 226.184,-63.9803 203.816,-63.9803 188,-53.4362 188,-38.5245 203.816,-27.9803 226.184,-27.9803 242,-38.5245"/>
<text text-anchor="middle" x="215" y="-41.7803" font-family="Times,serif" font-size="14.00">2.D</text>
</g>
<!-- 1.A&#45;&gt;2.D -->
<g id="edge3" class="edge"><title>1.A&#45;&gt;2.D</title>
<path fill="none" stroke="#aa00ff" stroke-width="3" stroke-dasharray="1,5" d="M49.2612,-27.9734C61.0407,-19.1848 76.4236,-9.54178 92,-4.98033 115.033,1.76464 122.878,1.45105 146,-4.98033 161.283,-9.23119 176.566,-17.9444 188.761,-26.2495"/>
<polygon fill="#aa00ff" stroke="#aa00ff" stroke-width="3" points="186.875,-29.2036 197.05,-32.1551 190.937,-23.5023 186.875,-29.2036"/>
<text text-anchor="middle" x="119" y="-7.78033" font-family="Times,serif" font-size="14.00">&gt;</text>
</g>
<!-- 1.B&#45;&gt;2.D -->
<g id="edge4" class="edge"><title>1.B&#45;&gt;2.D</title>
<path fill="none" stroke="#aa00ff" stroke-width="3" stroke-dasharray="1,5" d="M146.184,-84.9383C158.219,-78.0249 172.535,-69.8007 184.905,-62.6943"/>
<polygon fill="#aa00ff" stroke="#aa00ff" stroke-width="3" points="186.988,-65.5343 193.916,-57.5181 183.501,-59.4645 186.988,-65.5343"/>
<text text-anchor="middle" x="167" y="-76.7803" font-family="Times,serif" font-size="14.00">!</text>
</g>
<!-- 1.C&#45;&gt;2.D -->
<g id="edge5" class="edge"><title>1.C&#45;&gt;2.D</title>
<path fill="none" stroke="#aa00ff" stroke-width="3" stroke-dasharray="1,5" d="M146.184,-45.9803C155.963,-45.9803 167.247,-45.9803 177.771,-45.9803"/>
<polygon fill="#aa00ff" stroke="#aa00ff" stroke-width="3" points="177.956,-49.4804 187.956,-45.9803 177.956,-42.4804 177.956,-49.4804"/>
<text text-anchor="middle" x="167" y="-48.7803" font-family="Times,serif" font-size="14.00">!</text>
</g>
</g>
</svg>
