<?xml version="1.0" encoding="UTF-8" standalone="no"?>
<!DOCTYPE svg PUBLIC "-//W3C//DTD SVG 1.1//EN"
 "http://www.w3.org/Graphics/SVG/1.1/DTD/svg11.dtd">
<!-- Generated by graphviz version 2.36.0 (20140111.2315)
 -->
<!-- Title: %3 Pages: 1 -->
<svg width="206pt" height="376pt"
 viewBox="0.00 0.00 206.00 376.00" xmlns="http://www.w3.org/2000/svg" xmlns:xlink="http://www.w3.org/1999/xlink">
<g id="graph0" class="graph" transform="scale(1 1) rotate(0) translate(4 372)">
<title>%3</title>
<polygon fill="white" stroke="none" points="-4,4 -4,-372 202,-372 202,4 -4,4"/>
<!-- 1 -->
<g id="node1" class="node"><title>1</title>
<path fill="#a0ffa0" stroke="#006400" d="M42,-296C42,-296 12,-296 12,-296 6,-296 0,-290 0,-284 0,-284 0,-272 0,-272 0,-266 6,-260 12,-260 12,-260 42,-260 42,-260 48,-260 54,-266 54,-272 54,-272 54,-284 54,-284 54,-290 48,-296 42,-296"/>
<text text-anchor="middle" x="27" y="-275.044" font-family="Helvetica,sans-Serif" font-stretch="condensed" font-size="14.00">2, 3</text>
</g>
<!-- 3 -->
<g id="node3" class="node"><title>3</title>
<polygon fill="none" stroke="#006400" stroke-dasharray="5,2" points="54,-224 0,-224 0,-188 54,-188 54,-224"/>
<text text-anchor="middle" x="27" y="-203.044" font-family="Helvetica,sans-Serif" font-stretch="condensed" font-size="14.00">3</text>
</g>
<!-- 1&#45;&gt;3 -->
<g id="edge4" class="edge"><title>1&#45;&gt;3</title>
<path fill="none" stroke="#006400" stroke-dasharray="5,2" d="M27,-259.697C27,-251.983 27,-242.712 27,-234.112"/>
<polygon fill="#006400" stroke="#006400" points="30.5001,-234.104 27,-224.104 23.5001,-234.104 30.5001,-234.104"/>
</g>
<!-- 5 -->
<g id="node5" class="node"><title>5</title>
<polygon fill="none" stroke="#006400" stroke-dasharray="5,2" points="126,-224 72,-224 72,-188 126,-188 126,-224"/>
<text text-anchor="middle" x="99" y="-203.044" font-family="Helvetica,sans-Serif" font-stretch="condensed" font-size="14.00">2</text>
</g>
<!-- 1&#45;&gt;5 -->
<g id="edge5" class="edge"><title>1&#45;&gt;5</title>
<path fill="none" stroke="#006400" stroke-dasharray="5,2" d="M44.7978,-259.697C53.604,-251.135 64.3821,-240.656 74.0011,-231.304"/>
<polygon fill="#006400" stroke="#006400" points="76.6768,-233.585 81.407,-224.104 71.7972,-228.566 76.6768,-233.585"/>
</g>
<!-- 2 -->
<g id="node2" class="node"><title>2</title>
<path fill="#a0ffa0" stroke="#006400" d="M114,-296C114,-296 84,-296 84,-296 78,-296 72,-290 72,-284 72,-284 72,-272 72,-272 72,-266 78,-260 84,-260 84,-260 114,-260 114,-260 120,-260 126,-266 126,-272 126,-272 126,-284 126,-284 126,-290 120,-296 114,-296"/>
<text text-anchor="middle" x="99" y="-275.044" font-family="Helvetica,sans-Serif" font-stretch="condensed" font-size="14.00">1, 3</text>
</g>
<!-- 2&#45;&gt;3 -->
<g id="edge6" class="edge"><title>2&#45;&gt;3</title>
<path fill="none" stroke="#006400" stroke-dasharray="5,2" d="M81.2022,-259.697C72.396,-251.135 61.6179,-240.656 51.9989,-231.304"/>
<polygon fill="#006400" stroke="#006400" points="54.2028,-228.566 44.593,-224.104 49.3232,-233.585 54.2028,-228.566"/>
</g>
<!-- 6 -->
<g id="node6" class="node"><title>6</title>
<polygon fill="none" stroke="#006400" stroke-dasharray="5,2" points="198,-224 144,-224 144,-188 198,-188 198,-224"/>
<text text-anchor="middle" x="171" y="-203.044" font-family="Helvetica,sans-Serif" font-stretch="condensed" font-size="14.00">1</text>
</g>
<!-- 2&#45;&gt;6 -->
<g id="edge7" class="edge"><title>2&#45;&gt;6</title>
<path fill="none" stroke="#006400" stroke-dasharray="5,2" d="M116.798,-259.697C125.604,-251.135 136.382,-240.656 146.001,-231.304"/>
<polygon fill="#006400" stroke="#006400" points="148.677,-233.585 153.407,-224.104 143.797,-228.566 148.677,-233.585"/>
</g>
<!-- 7 -->
<g id="node7" class="node"><title>7</title>
<polygon fill="none" stroke="#006400" stroke-dasharray="5,2" points="126,-152 72,-152 72,-116 126,-116 126,-152"/>
</g>
<!-- 3&#45;&gt;7 -->
<g id="edge8" class="edge"><title>3&#45;&gt;7</title>
<path fill="none" stroke="#006400" stroke-dasharray="5,2" d="M44.7978,-187.697C53.604,-179.135 64.3821,-168.656 74.0011,-159.304"/>
<polygon fill="#006400" stroke="#006400" points="76.6768,-161.585 81.407,-152.104 71.7972,-156.566 76.6768,-161.585"/>
</g>
<!-- 4 -->
<g id="node4" class="node"><title>4</title>
<path fill="#a0ffa0" stroke="#006400" d="M186,-296C186,-296 156,-296 156,-296 150,-296 144,-290 144,-284 144,-284 144,-272 144,-272 144,-266 150,-260 156,-260 156,-260 186,-260 186,-260 192,-260 198,-266 198,-272 198,-272 198,-284 198,-284 198,-290 192,-296 186,-296"/>
<text text-anchor="middle" x="171" y="-275.044" font-family="Helvetica,sans-Serif" font-stretch="condensed" font-size="14.00">1, 2</text>
</g>
<!-- 4&#45;&gt;5 -->
<g id="edge9" class="edge"><title>4&#45;&gt;5</title>
<path fill="none" stroke="#006400" stroke-dasharray="5,2" d="M153.202,-259.697C144.396,-251.135 133.618,-240.656 123.999,-231.304"/>
<polygon fill="#006400" stroke="#006400" points="126.203,-228.566 116.593,-224.104 121.323,-233.585 126.203,-228.566"/>
</g>
<!-- 4&#45;&gt;6 -->
<g id="edge10" class="edge"><title>4&#45;&gt;6</title>
<path fill="none" stroke="#006400" stroke-dasharray="5,2" d="M171,-259.697C171,-251.983 171,-242.712 171,-234.112"/>
<polygon fill="#006400" stroke="#006400" points="174.5,-234.104 171,-224.104 167.5,-234.104 174.5,-234.104"/>
</g>
<!-- 5&#45;&gt;7 -->
<g id="edge11" class="edge"><title>5&#45;&gt;7</title>
<path fill="none" stroke="#006400" stroke-dasharray="5,2" d="M99,-187.697C99,-179.983 99,-170.712 99,-162.112"/>
<polygon fill="#006400" stroke="#006400" points="102.5,-162.104 99,-152.104 95.5001,-162.104 102.5,-162.104"/>
</g>
<!-- 6&#45;&gt;7 -->
<g id="edge12" class="edge"><title>6&#45;&gt;7</title>
<path fill="none" stroke="#006400" stroke-dasharray="5,2" d="M153.202,-187.697C144.396,-179.135 133.618,-168.656 123.999,-159.304"/>
<polygon fill="#006400" stroke="#006400" points="126.203,-156.566 116.593,-152.104 121.323,-161.585 126.203,-156.566"/>
</g>
<!-- 0 -->
<g id="node8" class="node"><title>0</title>
<polygon fill="#ffb0b0" stroke="#ff0000" points="143.256,-342.544 143.256,-357.456 117.331,-368 80.6686,-368 54.7441,-357.456 54.7441,-342.544 80.6686,-332 117.331,-332 143.256,-342.544"/>
<text text-anchor="middle" x="99" y="-347.044" font-family="Helvetica,sans-Serif" font-stretch="condensed" font-size="14.00">1, 2, 3</text>
</g>
<!-- 0&#45;&gt;1 -->
<g id="edge1" class="edge"><title>0&#45;&gt;1</title>
<path fill="none" stroke="#0000ff" d="M81.2022,-331.697C70.0419,-320.846 55.7143,-306.917 44.593,-296.104"/>
</g>
<!-- 0&#45;&gt;2 -->
<g id="edge2" class="edge"><title>0&#45;&gt;2</title>
<path fill="none" stroke="#0000ff" d="M99,-331.697C99,-320.846 99,-306.917 99,-296.104"/>
</g>
<!-- 0&#45;&gt;4 -->
<g id="edge3" class="edge"><title>0&#45;&gt;4</title>
<path fill="none" stroke="#0000ff" d="M116.798,-331.697C127.958,-320.846 142.286,-306.917 153.407,-296.104"/>
</g>
<!-- Legend -->
<g id="node9" class="node"><title>Legend</title>
<polygon fill="none" stroke="black" points="169,-79.5 29,-79.5 29,-0.5 169,-0.5 169,-79.5"/>
<polygon fill="none" stroke="black" points="29,-52 29,-79 48,-79 48,-52 29,-52"/>
<text text-anchor="start" x="34.0737" y="-62.5441" font-family="Helvetica,sans-Serif" font-stretch="condensed" font-size="14.00">1</text>
<polygon fill="none" stroke="black" points="48,-52 48,-79 169,-79 169,-52 48,-52"/>
<text text-anchor="start" x="52.8521" y="-62.5441" font-family="Helvetica,sans-Serif" font-stretch="condensed" font-size="14.00">1.A includes 2.D</text>
<polygon fill="none" stroke="black" points="29,-26 29,-52 48,-52 48,-26 29,-26"/>
<text text-anchor="start" x="34.0737" y="-35.8" font-family="Helvetica,sans-Serif" font-stretch="condensed" font-size="14.00">2</text>
<polygon fill="none" stroke="black" points="48,-26 48,-52 169,-52 169,-26 48,-26"/>
<text text-anchor="start" x="56.4375" y="-35.8" font-family="Helvetica,sans-Serif" font-stretch="condensed" font-size="14.00">1.B disjoint 2.D</text>
<polygon fill="none" stroke="black" points="29,-0 29,-26 48,-26 48,-0 29,-0"/>
<text text-anchor="start" x="34.0737" y="-9.8" font-family="Helvetica,sans-Serif" font-stretch="condensed" font-size="14.00">3</text>
<polygon fill="none" stroke="black" points="48,-0 48,-26 169,-26 169,-0 48,-0"/>
<text text-anchor="start" x="55.6206" y="-9.8" font-family="Helvetica,sans-Serif" font-stretch="condensed" font-size="14.00">1.C disjoint 2.D</text>
</g>
</g>
</svg>
